<?xml version="1.0" standalone="no"?>
 <!DOCTYPE svg PUBLIC "-//W3C//DTD SVG 1.1//EN" 
 "http://www.w3.org/Graphics/SVG/1.1/DTD/svg11.dtd"> 
<svg
  xmlns:svg="http://www.w3.org/2000/svg"
  xmlns="http://www.w3.org/2000/svg"
  xmlns:xlink="http://www.w3.org/1999/xlink"
  version="1.1"
  width="29.700220cm" height="21.000720cm" viewBox="0 0 297002200 210007200">
<title>SVG Picture created as LavaLamp_APA102-brd.svg date 2023/01/18 14:18:54 </title>
  <desc>Picture generated by PCBNEW </desc>
<g style="fill:#000000; fill-opacity:1.000000;stroke:#000000; stroke-opacity:1.000000;
stroke-linecap:round; stroke-linejoin:round;"
 transform="translate(0 0) scale(1 1)">
</g>
<g style="fill:#000000; fill-opacity:0.0; 
stroke:#000000; stroke-width:0.000000; stroke-opacity:1; 
stroke-linecap:round; stroke-linejoin:round;">
</g>
<g style="fill:#000000; fill-opacity:0.0; 
stroke:#000000; stroke-width:150000.000000; stroke-opacity:1; 
stroke-linecap:round; stroke-linejoin:round;">
<g transform="rotate(-90.000000 176252199.000000 88285000.000000)">
<text x="176252199.000000" y="88785000.000000"
transform="scale(-1 1) translate(-352504398.000000 0)"
textLength="5216190.000000" font-size="1333333.000000" lengthAdjust="spacingAndGlyphs"
text-anchor="middle" opacity="0">0.69 in</text>
</g>
<g class="stroked-text"><desc>0.69 in</desc>
<path d="M176799819 85975476
L176799819 86070714
L176752199 86165952
L176704580 86213571
L176609342 86261190
L176418866 86308809
L176180771 86308809
L175990295 86261190
L175895057 86213571
L175847438 86165952
L175799819 86070714
L175799819 85975476
L175847438 85880238
L175895057 85832619
L175990295 85785000
L176180771 85737380
L176418866 85737380
L176609342 85785000
L176704580 85832619
L176752199 85880238
L176799819 85975476
" />
<path d="M175895057 86737380
L175847438 86785000
L175799819 86737380
L175847438 86689761
L175895057 86737380
L175799819 86737380
" />
<path d="M176799819 87642142
L176799819 87451666
L176752199 87356428
L176704580 87308809
L176561723 87213571
L176371247 87165952
L175990295 87165952
L175895057 87213571
L175847438 87261190
L175799819 87356428
L175799819 87546904
L175847438 87642142
L175895057 87689761
L175990295 87737380
L176228390 87737380
L176323628 87689761
L176371247 87642142
L176418866 87546904
L176418866 87356428
L176371247 87261190
L176323628 87213571
L176228390 87165952
" />
<path d="M175799819 88213571
L175799819 88404047
L175847438 88499285
L175895057 88546904
L176037914 88642142
L176228390 88689761
L176609342 88689761
L176704580 88642142
L176752199 88594523
L176799819 88499285
L176799819 88308809
L176752199 88213571
L176704580 88165952
L176609342 88118333
L176371247 88118333
L176276009 88165952
L176228390 88213571
L176180771 88308809
L176180771 88499285
L176228390 88594523
L176276009 88642142
L176371247 88689761
" />
<path d="M175799819 89880238
L176466485 89880238
" />
<path d="M176799819 89880238
L176752199 89832619
L176704580 89880238
L176752199 89927857
L176799819 89880238
L176704580 89880238
" />
<path d="M176466485 90356428
L175799819 90356428
" />
<path d="M176371247 90356428
L176418866 90404047
L176466485 90499285
L176466485 90642142
L176418866 90737380
L176323628 90785000
L175799819 90785000
" />
</g></g>
<g style="fill:#000000; fill-opacity:0.0; 
stroke:#000000; stroke-width:100000.000000; stroke-opacity:1; 
stroke-linecap:round; stroke-linejoin:round;">
<path d="M174502200 79520000
L175688619 79520000
" />
<path d="M174502200 97050000
L175688619 97050000
" />
<path d="M175102199 79520000
L175102199 97050000
" />
<path d="M175102199 79520000
L175102199 97050000
" />
<path d="M175102199 79520000
L175688620 80646504
" />
<path d="M175102199 79520000
L174515778 80646504
" />
<path d="M175102199 97050000
L174515778 95923496
" />
<path d="M175102199 97050000
L175688620 95923496
" />
<path d="M173002200 97050000
L174002200 97050000
" />
</g>
<g style="fill:#000000; fill-opacity:0.0; 
stroke:#000000; stroke-width:150000.000000; stroke-opacity:1; 
stroke-linecap:round; stroke-linejoin:round;">
<g transform="rotate(-90.000000 117752200.000000 66400000.000000)">
<text x="117752200.000000" y="66900000.000000"
transform="scale(-1 1) translate(-235504400.000000 0)"
textLength="5281190.000000" font-size="1333333.000000" lengthAdjust="spacingAndGlyphs"
text-anchor="middle" opacity="0">0.61 in</text>
</g>
<g class="stroked-text"><desc>0.61 in</desc>
<path d="M118299820 64090476
L118299820 64185714
L118252200 64280952
L118204581 64328571
L118109343 64376190
L117918867 64423809
L117680772 64423809
L117490296 64376190
L117395058 64328571
L117347439 64280952
L117299820 64185714
L117299820 64090476
L117347439 63995238
L117395058 63947619
L117490296 63900000
L117680772 63852380
L117918867 63852380
L118109343 63900000
L118204581 63947619
L118252200 63995238
L118299820 64090476
" />
<path d="M117395058 64852380
L117347439 64900000
L117299820 64852380
L117347439 64804761
L117395058 64852380
L117299820 64852380
" />
<path d="M118299820 65757142
L118299820 65566666
L118252200 65471428
L118204581 65423809
L118061724 65328571
L117871248 65280952
L117490296 65280952
L117395058 65328571
L117347439 65376190
L117299820 65471428
L117299820 65661904
L117347439 65757142
L117395058 65804761
L117490296 65852380
L117728391 65852380
L117823629 65804761
L117871248 65757142
L117918867 65661904
L117918867 65471428
L117871248 65376190
L117823629 65328571
L117728391 65280952
" />
<path d="M117299820 66804761
L117299820 66233333
" />
<path d="M117299820 66519047
L118299820 66519047
L118156962 66423809
L118061724 66328571
L118014105 66233333
" />
<path d="M117299820 67995238
L117966486 67995238
" />
<path d="M118299820 67995238
L118252200 67947619
L118204581 67995238
L118252200 68042857
L118299820 67995238
L118204581 67995238
" />
<path d="M117966486 68471428
L117299820 68471428
" />
<path d="M117871248 68471428
L117918867 68519047
L117966486 68614285
L117966486 68757142
L117918867 68852380
L117823629 68900000
L117299820 68900000
" />
</g></g>
<g style="fill:#000000; fill-opacity:0.0; 
stroke:#000000; stroke-width:100000.000000; stroke-opacity:1; 
stroke-linecap:round; stroke-linejoin:round;">
<path d="M119402200 74440000
L119488620 74440000
" />
<path d="M119402200 58950000
L119488620 58950000
" />
<path d="M118902200 74440000
L118902200 58950000
" />
<path d="M118902200 74440000
L118902200 58950000
" />
<path d="M118902200 74440000
L118315779 73313496
" />
<path d="M118902200 74440000
L119488621 73313496
" />
<path d="M118902200 58950000
L119488621 60076504
" />
<path d="M118902200 58950000
L118315779 60076504
" />
</g>
<g style="fill:#000000; fill-opacity:0.0; 
stroke:#000000; stroke-width:150000.000000; stroke-opacity:1; 
stroke-linecap:round; stroke-linejoin:round;">
<g transform="rotate(-90.000000 118902200.000000 81500000.000000)">
<text x="118902200.000000" y="82000000.000000"
transform="scale(-1 1) translate(-237804400.000000 0)"
textLength="5281190.000000" font-size="1333333.000000" lengthAdjust="spacingAndGlyphs"
text-anchor="middle" opacity="0">0.14 in</text>
</g>
<g class="stroked-text"><desc>0.14 in</desc>
<path d="M119449820 79190476
L119449820 79285714
L119402200 79380952
L119354581 79428571
L119259343 79476190
L119068867 79523809
L118830772 79523809
L118640296 79476190
L118545058 79428571
L118497439 79380952
L118449820 79285714
L118449820 79190476
L118497439 79095238
L118545058 79047619
L118640296 79000000
L118830772 78952380
L119068867 78952380
L119259343 79000000
L119354581 79047619
L119402200 79095238
L119449820 79190476
" />
<path d="M118545058 79952380
L118497439 80000000
L118449820 79952380
L118497439 79904761
L118545058 79952380
L118449820 79952380
" />
<path d="M118449820 80952380
L118449820 80380952
" />
<path d="M118449820 80666666
L119449820 80666666
L119306962 80571428
L119211724 80476190
L119164105 80380952
" />
<path d="M119116486 81809523
L118449820 81809523
" />
<path d="M119497439 81571428
L118783153 81333333
L118783153 81952380
" />
<path d="M118449820 83095238
L119116486 83095238
" />
<path d="M119449820 83095238
L119402200 83047619
L119354581 83095238
L119402200 83142857
L119449820 83095238
L119354581 83095238
" />
<path d="M119116486 83571428
L118449820 83571428
" />
<path d="M119021248 83571428
L119068867 83619047
L119116486 83714285
L119116486 83857142
L119068867 83952380
L118973629 84000000
L118449820 84000000
" />
</g></g>
<g style="fill:#000000; fill-opacity:0.0; 
stroke:#000000; stroke-width:100000.000000; stroke-opacity:1; 
stroke-linecap:round; stroke-linejoin:round;">
<path d="M119502200 74440000
L118315780 74440000
" />
<path d="M119502200 78000000
L118315780 78000000
" />
<path d="M118902200 74440000
L118902200 78000000
" />
<path d="M118902200 74440000
L118902200 78000000
" />
<path d="M118902200 74440000
L119488621 75566504
" />
<path d="M118902200 74440000
L118315779 75566504
" />
<path d="M118902200 78000000
L118315779 76873496
" />
<path d="M118902200 78000000
L119488621 76873496
" />
</g>
<g style="fill:#000000; fill-opacity:0.0; 
stroke:#000000; stroke-width:150000.000000; stroke-opacity:1; 
stroke-linecap:round; stroke-linejoin:round;">
<g transform="rotate(-90.000000 175202200.000000 75000000.000000)">
<text x="175202200.000000" y="75500000.000000"
transform="scale(-1 1) translate(-350404400.000000 0)"
textLength="5281190.000000" font-size="1333333.000000" lengthAdjust="spacingAndGlyphs"
text-anchor="middle" opacity="0">0.06 in</text>
</g>
<g class="stroked-text"><desc>0.06 in</desc>
<path d="M175749820 72690476
L175749820 72785714
L175702200 72880952
L175654581 72928571
L175559343 72976190
L175368867 73023809
L175130772 73023809
L174940296 72976190
L174845058 72928571
L174797439 72880952
L174749820 72785714
L174749820 72690476
L174797439 72595238
L174845058 72547619
L174940296 72500000
L175130772 72452380
L175368867 72452380
L175559343 72500000
L175654581 72547619
L175702200 72595238
L175749820 72690476
" />
<path d="M174845058 73452380
L174797439 73500000
L174749820 73452380
L174797439 73404761
L174845058 73452380
L174749820 73452380
" />
<path d="M175749820 74119047
L175749820 74214285
L175702200 74309523
L175654581 74357142
L175559343 74404761
L175368867 74452380
L175130772 74452380
L174940296 74404761
L174845058 74357142
L174797439 74309523
L174749820 74214285
L174749820 74119047
L174797439 74023809
L174845058 73976190
L174940296 73928571
L175130772 73880952
L175368867 73880952
L175559343 73928571
L175654581 73976190
L175702200 74023809
L175749820 74119047
" />
<path d="M175749820 75309523
L175749820 75119047
L175702200 75023809
L175654581 74976190
L175511724 74880952
L175321248 74833333
L174940296 74833333
L174845058 74880952
L174797439 74928571
L174749820 75023809
L174749820 75214285
L174797439 75309523
L174845058 75357142
L174940296 75404761
L175178391 75404761
L175273629 75357142
L175321248 75309523
L175368867 75214285
L175368867 75023809
L175321248 74928571
L175273629 74880952
L175178391 74833333
" />
<path d="M174749820 76595238
L175416486 76595238
" />
<path d="M175749820 76595238
L175702200 76547619
L175654581 76595238
L175702200 76642857
L175749820 76595238
L175654581 76595238
" />
<path d="M175416486 77071428
L174749820 77071428
" />
<path d="M175321248 77071428
L175368867 77119047
L175416486 77214285
L175416486 77357142
L175368867 77452380
L175273629 77500000
L174749820 77500000
" />
</g></g>
<g style="fill:#000000; fill-opacity:0.0; 
stroke:#000000; stroke-width:100000.000000; stroke-opacity:1; 
stroke-linecap:round; stroke-linejoin:round;">
<path d="M174502200 79520000
L175688620 79520000
" />
<path d="M174502200 78000000
L175688620 78000000
" />
<path d="M175102200 79520000
L175102200 78313095
" />
<path d="M175102200 79520000
L174515779 78393496
" />
<path d="M175102200 79520000
L175688621 78393496
" />
<path d="M175102200 78000000
L175688621 79126504
" />
<path d="M175102200 78000000
L174515779 79126504
" />
</g>
<g style="fill:#000000; fill-opacity:0.0; 
stroke:#000000; stroke-width:150000.000000; stroke-opacity:1; 
stroke-linecap:round; stroke-linejoin:round;">
<text x="157922200.000000" y="56350000.000000"
transform="scale(-1 1) translate(-315844400.000000 0)"
textLength="5281190.000000" font-size="1333333.000000" lengthAdjust="spacingAndGlyphs"
text-anchor="middle" opacity="0">0.86 in</text>
<g class="stroked-text"><desc>0.86 in</desc>
<path d="M155612677 55302380
L155707915 55302380
L155803153 55350000
L155850772 55397619
L155898391 55492857
L155946010 55683333
L155946010 55921428
L155898391 56111904
L155850772 56207142
L155803153 56254761
L155707915 56302380
L155612677 56302380
L155517439 56254761
L155469820 56207142
L155422200 56111904
L155374581 55921428
L155374581 55683333
L155422200 55492857
L155469820 55397619
L155517439 55350000
L155612677 55302380
" />
<path d="M156374581 56207142
L156422200 56254761
L156374581 56302380
L156326962 56254761
L156374581 56207142
L156374581 56302380
" />
<path d="M156993629 55730952
L156898391 55683333
L156850772 55635714
L156803153 55540476
L156803153 55492857
L156850772 55397619
L156898391 55350000
L156993629 55302380
L157184105 55302380
L157279343 55350000
L157326962 55397619
L157374581 55492857
L157374581 55540476
L157326962 55635714
L157279343 55683333
L157184105 55730952
L156993629 55730952
L156898391 55778571
L156850772 55826190
L156803153 55921428
L156803153 56111904
L156850772 56207142
L156898391 56254761
L156993629 56302380
L157184105 56302380
L157279343 56254761
L157326962 56207142
L157374581 56111904
L157374581 55921428
L157326962 55826190
L157279343 55778571
L157184105 55730952
" />
<path d="M158231724 55302380
L158041248 55302380
L157946010 55350000
L157898391 55397619
L157803153 55540476
L157755534 55730952
L157755534 56111904
L157803153 56207142
L157850772 56254761
L157946010 56302380
L158136486 56302380
L158231724 56254761
L158279343 56207142
L158326962 56111904
L158326962 55873809
L158279343 55778571
L158231724 55730952
L158136486 55683333
L157946010 55683333
L157850772 55730952
L157803153 55778571
L157755534 55873809
" />
<path d="M159517439 56302380
L159517439 55635714
" />
<path d="M159517439 55302380
L159469820 55350000
L159517439 55397619
L159565058 55350000
L159517439 55302380
L159517439 55397619
" />
<path d="M159993629 55635714
L159993629 56302380
" />
<path d="M159993629 55730952
L160041248 55683333
L160136486 55635714
L160279343 55635714
L160374581 55683333
L160422200 55778571
L160422200 56302380
" />
</g></g>
<g style="fill:#000000; fill-opacity:0.0; 
stroke:#000000; stroke-width:100000.000000; stroke-opacity:1; 
stroke-linecap:round; stroke-linejoin:round;">
<path d="M147002200 57500000
L147002200 57586420
" />
<path d="M168842200 57500000
L168842200 57586420
" />
<path d="M147002200 57000000
L168842200 57000000
" />
<path d="M147002200 57000000
L168842200 57000000
" />
<path d="M147002200 57000000
L148128704 56413579
" />
<path d="M147002200 57000000
L148128704 57586421
" />
<path d="M168842200 57000000
L167715696 57586421
" />
<path d="M168842200 57000000
L167715696 56413579
" />
<path d="M121602200 58500000
L121602200 57000000
" />
</g>
<g style="fill:#000000; fill-opacity:0.0; 
stroke:#000000; stroke-width:150000.000000; stroke-opacity:1; 
stroke-linecap:round; stroke-linejoin:round;">
<text x="123382200.000000" y="56350000.000000"
transform="scale(-1 1) translate(-246764400.000000 0)"
textLength="5281190.000000" font-size="1333333.000000" lengthAdjust="spacingAndGlyphs"
text-anchor="middle" opacity="0">0.14 in</text>
<g class="stroked-text"><desc>0.14 in</desc>
<path d="M121072677 55302380
L121167915 55302380
L121263153 55350000
L121310772 55397619
L121358391 55492857
L121406010 55683333
L121406010 55921428
L121358391 56111904
L121310772 56207142
L121263153 56254761
L121167915 56302380
L121072677 56302380
L120977439 56254761
L120929820 56207142
L120882200 56111904
L120834581 55921428
L120834581 55683333
L120882200 55492857
L120929820 55397619
L120977439 55350000
L121072677 55302380
" />
<path d="M121834581 56207142
L121882200 56254761
L121834581 56302380
L121786962 56254761
L121834581 56207142
L121834581 56302380
" />
<path d="M122834581 56302380
L122263153 56302380
" />
<path d="M122548867 56302380
L122548867 55302380
L122453629 55445238
L122358391 55540476
L122263153 55588095
" />
<path d="M123691724 55635714
L123691724 56302380
" />
<path d="M123453629 55254761
L123215534 55969047
L123834581 55969047
" />
<path d="M124977439 56302380
L124977439 55635714
" />
<path d="M124977439 55302380
L124929820 55350000
L124977439 55397619
L125025058 55350000
L124977439 55302380
L124977439 55397619
" />
<path d="M125453629 55635714
L125453629 56302380
" />
<path d="M125453629 55730952
L125501248 55683333
L125596486 55635714
L125739343 55635714
L125834581 55683333
L125882200 55778571
L125882200 56302380
" />
</g></g>
<g style="fill:#000000; fill-opacity:0.0; 
stroke:#000000; stroke-width:100000.000000; stroke-opacity:1; 
stroke-linecap:round; stroke-linejoin:round;">
<path d="M121602200 57500000
L121602200 57586420
" />
<path d="M125162200 57500000
L125162200 57586420
" />
<path d="M121602200 57000000
L125162200 57000000
" />
<path d="M121602200 57000000
L125162200 57000000
" />
<path d="M121602200 57000000
L122728704 56413579
" />
<path d="M121602200 57000000
L122728704 57586421
" />
<path d="M125162200 57000000
L124035696 57586421
" />
<path d="M125162200 57000000
L124035696 56413579
" />
</g>
<g style="fill:#000000; fill-opacity:0.0; 
stroke:#000000; stroke-width:150000.000000; stroke-opacity:1; 
stroke-linecap:round; stroke-linejoin:round;">
<text x="170622200.000000" y="56350000.000000"
transform="scale(-1 1) translate(-341244400.000000 0)"
textLength="5281190.000000" font-size="1333333.000000" lengthAdjust="spacingAndGlyphs"
text-anchor="middle" opacity="0">0.14 in</text>
<g class="stroked-text"><desc>0.14 in</desc>
<path d="M168312677 55302380
L168407915 55302380
L168503153 55350000
L168550772 55397619
L168598391 55492857
L168646010 55683333
L168646010 55921428
L168598391 56111904
L168550772 56207142
L168503153 56254761
L168407915 56302380
L168312677 56302380
L168217439 56254761
L168169820 56207142
L168122200 56111904
L168074581 55921428
L168074581 55683333
L168122200 55492857
L168169820 55397619
L168217439 55350000
L168312677 55302380
" />
<path d="M169074581 56207142
L169122200 56254761
L169074581 56302380
L169026962 56254761
L169074581 56207142
L169074581 56302380
" />
<path d="M170074581 56302380
L169503153 56302380
" />
<path d="M169788867 56302380
L169788867 55302380
L169693629 55445238
L169598391 55540476
L169503153 55588095
" />
<path d="M170931724 55635714
L170931724 56302380
" />
<path d="M170693629 55254761
L170455534 55969047
L171074581 55969047
" />
<path d="M172217439 56302380
L172217439 55635714
" />
<path d="M172217439 55302380
L172169820 55350000
L172217439 55397619
L172265058 55350000
L172217439 55302380
L172217439 55397619
" />
<path d="M172693629 55635714
L172693629 56302380
" />
<path d="M172693629 55730952
L172741248 55683333
L172836486 55635714
L172979343 55635714
L173074581 55683333
L173122200 55778571
L173122200 56302380
" />
</g></g>
<g style="fill:#000000; fill-opacity:0.0; 
stroke:#000000; stroke-width:100000.000000; stroke-opacity:1; 
stroke-linecap:round; stroke-linejoin:round;">
<path d="M168842200 57500000
L168842200 57586420
" />
<path d="M172402200 57500000
L172402200 57586420
" />
<path d="M168842200 57000000
L172402200 57000000
" />
<path d="M168842200 57000000
L172402200 57000000
" />
<path d="M168842200 57000000
L169968704 56413579
" />
<path d="M168842200 57000000
L169968704 57586421
" />
<path d="M172402200 57000000
L171275696 57586421
" />
<path d="M172402200 57000000
L171275696 56413579
" />
<path d="M172402200 58500000
L172402200 57000000
" />
<path d="M120002200 74440000
L127002200 74440000
" />
<path d="M125162200 57000000
L125162200 78960000
" />
<path d="M174002200 79520000
L167002200 79520000
" />
<path d="M168842200 85000000
L168842200 57000000
" />
<path d="M147002200 57000000
L147002200 99000000
" />
<path d="M120002200 78000000
L174002200 78000000
" />
</g>
<g style="fill:#000000; fill-opacity:0.0; 
stroke:#000000; stroke-width:150000.000000; stroke-opacity:1; 
stroke-linecap:round; stroke-linejoin:round;">
<text x="147002200.000000" y="104100000.000000"
transform="scale(-1 1) translate(-294004400.000000 0)"
textLength="5281190.000000" font-size="1333333.000000" lengthAdjust="spacingAndGlyphs"
text-anchor="middle" opacity="0">2.00 in</text>
<g class="stroked-text"><desc>2.00 in</desc>
<path d="M144454581 103147619
L144502200 103100000
L144597439 103052380
L144835534 103052380
L144930772 103100000
L144978391 103147619
L145026010 103242857
L145026010 103338095
L144978391 103480952
L144406962 104052380
L145026010 104052380
" />
<path d="M145454581 103957142
L145502200 104004761
L145454581 104052380
L145406962 104004761
L145454581 103957142
L145454581 104052380
" />
<path d="M146121248 103052380
L146216486 103052380
L146311724 103100000
L146359343 103147619
L146406962 103242857
L146454581 103433333
L146454581 103671428
L146406962 103861904
L146359343 103957142
L146311724 104004761
L146216486 104052380
L146121248 104052380
L146026010 104004761
L145978391 103957142
L145930772 103861904
L145883153 103671428
L145883153 103433333
L145930772 103242857
L145978391 103147619
L146026010 103100000
L146121248 103052380
" />
<path d="M147073629 103052380
L147168867 103052380
L147264105 103100000
L147311724 103147619
L147359343 103242857
L147406962 103433333
L147406962 103671428
L147359343 103861904
L147311724 103957142
L147264105 104004761
L147168867 104052380
L147073629 104052380
L146978391 104004761
L146930772 103957142
L146883153 103861904
L146835534 103671428
L146835534 103433333
L146883153 103242857
L146930772 103147619
L146978391 103100000
L147073629 103052380
" />
<path d="M148597439 104052380
L148597439 103385714
" />
<path d="M148597439 103052380
L148549820 103100000
L148597439 103147619
L148645058 103100000
L148597439 103052380
L148597439 103147619
" />
<path d="M149073629 103385714
L149073629 104052380
" />
<path d="M149073629 103480952
L149121248 103433333
L149216486 103385714
L149359343 103385714
L149454581 103433333
L149502200 103528571
L149502200 104052380
" />
</g></g>
<g style="fill:#000000; fill-opacity:0.0; 
stroke:#000000; stroke-width:120000.000000; stroke-opacity:1; 
stroke-linecap:round; stroke-linejoin:round;">
<path d="M121602200 97550000
L121602200 102716420
" />
<path d="M172402200 102716420
L172402200 97550000
" />
<path d="M121602200 102130000
L172402200 102130000
" />
<path d="M121602200 102130000
L172402200 102130000
" />
<path d="M121602200 102130000
L122728704 101543579
" />
<path d="M121602200 102130000
L122728704 102716421
" />
<path d="M172402200 102130000
L171275696 102716421
" />
<path d="M172402200 102130000
L171275696 101543579
" />
</g>
<g style="fill:#000000; fill-opacity:0.0; 
stroke:#000000; stroke-width:150000.000000; stroke-opacity:1; 
stroke-linecap:round; stroke-linejoin:round;">
<g transform="rotate(-90.000000 115102200.000000 77900000.000000)">
<text x="115102200.000000" y="78400000.000000"
transform="scale(-1 1) translate(-230204400.000000 0)"
textLength="5281190.000000" font-size="1333333.000000" lengthAdjust="spacingAndGlyphs"
text-anchor="middle" opacity="0">1.50 in</text>
</g>
<g class="stroked-text"><desc>1.50 in</desc>
<path d="M114649820 75923809
L114649820 75352380
" />
<path d="M114649820 75638095
L115649820 75638095
L115506962 75542857
L115411724 75447619
L115364105 75352380
" />
<path d="M114745058 76352380
L114697439 76400000
L114649820 76352380
L114697439 76304761
L114745058 76352380
L114649820 76352380
" />
<path d="M115649820 77304761
L115649820 76828571
L115173629 76780952
L115221248 76828571
L115268867 76923809
L115268867 77161904
L115221248 77257142
L115173629 77304761
L115078391 77352380
L114840296 77352380
L114745058 77304761
L114697439 77257142
L114649820 77161904
L114649820 76923809
L114697439 76828571
L114745058 76780952
" />
<path d="M115649820 77971428
L115649820 78066666
L115602200 78161904
L115554581 78209523
L115459343 78257142
L115268867 78304761
L115030772 78304761
L114840296 78257142
L114745058 78209523
L114697439 78161904
L114649820 78066666
L114649820 77971428
L114697439 77876190
L114745058 77828571
L114840296 77780952
L115030772 77733333
L115268867 77733333
L115459343 77780952
L115554581 77828571
L115602200 77876190
L115649820 77971428
" />
<path d="M114649820 79495238
L115316486 79495238
" />
<path d="M115649820 79495238
L115602200 79447619
L115554581 79495238
L115602200 79542857
L115649820 79495238
L115554581 79495238
" />
<path d="M115316486 79971428
L114649820 79971428
" />
<path d="M115221248 79971428
L115268867 80019047
L115316486 80114285
L115316486 80257142
L115268867 80352380
L115173629 80400000
L114649820 80400000
" />
</g></g>
<g style="fill:#000000; fill-opacity:0.0; 
stroke:#000000; stroke-width:100000.000000; stroke-opacity:1; 
stroke-linecap:round; stroke-linejoin:round;">
<path d="M121102200 58950000
L115808780 58950000
" />
<path d="M115808780 97050000
L121102200 97050000
" />
<path d="M116395200 58950000
L116395200 97050000
" />
<path d="M116395200 58950000
L116395200 97050000
" />
<path d="M116395200 58950000
L116981621 60076504
" />
<path d="M116395200 58950000
L115808779 60076504
" />
<path d="M116395200 97050000
L115808779 95923496
" />
<path d="M116395200 97050000
L116981621 95923496
" />
<g >
</g>
<g >
</g>
<g >
</g>
<g >
</g>
<g >
</g>
<g >
</g>
<g >
</g>
<g >
</g>
<g >
</g>
<g >
</g>
<g >
</g>
<g >
</g>
<g >
</g>
<g >
</g>
<g >
</g>
<g >
</g>
<g >
</g>
<g >
</g>
<g >
</g>
<g >
</g>
<g >
</g>
<g >
</g>
<g >
</g>
<g >
</g>
<g >
</g>
<g >
</g>
<g >
</g>
<g >
</g>
<g >
</g>
<g >
</g>
<g >
</g>
<g >
</g>
<g >
</g>
<g >
</g>
<g >
</g>
<g >
</g>
<g >
</g>
<g >
</g>
<g >
</g>
<g >
</g>
<g >
</g>
<g >
</g>
<g >
</g>
<g >
</g>
<g >
</g>
</g>
<g style="fill:#000000; fill-opacity:0.0; 
stroke:#000000; stroke-width:100000.000000; stroke-opacity:1; 
stroke-linecap:round; stroke-linejoin:round;">
</g>
<g style="fill:#000000; fill-opacity:0.0; 
stroke:#000000; stroke-width:50000.000000; stroke-opacity:1; 
stroke-linecap:round; stroke-linejoin:round;">
<path d="M172402200 97050000
L121602200 97050000
" />
<path d="M121602200 97050000
L121602200 58950000
" />
<path d="M121602200 58950000
L172402200 58950000
" />
<path d="M172402200 58950000
L172402200 97050000
" />
<g >
</g>
<g >
</g>
<g >
</g>
<g >
</g>
<g >
</g>
<g >
</g>
<g >
</g>
<g >
</g>
<g >
</g>
<g >
</g>
<g >
</g>
<g >
</g>
<g >
</g>
<g >
</g>
<g >
</g>
<g >
</g>
<g >
</g>
<g >
</g>
<g >
</g>
<g >
</g>
<g >
</g>
<g >
</g>
<g >
</g>
<g >
</g>
<g >
</g>
<g >
</g>
<g >
</g>
<g >
</g>
<g >
</g>
<g >
</g>
<g >
</g>
<g >
</g>
<g >
</g>
<g >
</g>
<g >
</g>
<g >
</g>
<g >
</g>
<g >
</g>
<g >
</g>
<g >
</g>
<g >
</g>
<g >
</g>
<g >
</g>
<g >
</g>
<g >
</g>
</g> 
</svg>
