<?xml version="1.0" standalone="no"?>
 <!DOCTYPE svg PUBLIC "-//W3C//DTD SVG 1.1//EN" 
 "http://www.w3.org/Graphics/SVG/1.1/DTD/svg11.dtd"> 
<svg
  xmlns:svg="http://www.w3.org/2000/svg"
  xmlns="http://www.w3.org/2000/svg"
  xmlns:xlink="http://www.w3.org/1999/xlink"
  version="1.1"
  width="297.0022mm" height="210.0072mm" viewBox="0.0000 0.0000 297.0022 210.0072">
<title>SVG Image created as LavaLamp_APA102-brd.svg date 2024/01/21 16:28:57 </title>
  <desc>Image generated by PCBNEW </desc>
<g style="fill:#000000; fill-opacity:1.0000;stroke:#000000; stroke-opacity:1.0000;
stroke-linecap:round; stroke-linejoin:round;"
 transform="translate(0 0) scale(1 1)">
</g>
<g style="fill:#000000; fill-opacity:0.0; 
stroke:#000000; stroke-width:0.0000; stroke-opacity:1; 
stroke-linecap:round; stroke-linejoin:round;">
</g>
<g style="fill:#000000; fill-opacity:1.0000; 
stroke:#000000; stroke-width:0.0212; stroke-opacity:1; 
stroke-linecap:round; stroke-linejoin:round;">
<rect x="87.450000" y="46.001750" width="137.400000" height="63.446501" rx="0.000000" />
</g>
<g style="fill:#FFFFFF; fill-opacity:1.0000; 
stroke:#FFFFFF; stroke-width:0.0212; stroke-opacity:1; 
stroke-linecap:round; stroke-linejoin:round;">
</g>
<g style="fill:#FFFFFF; fill-opacity:1.0000; 
stroke:#FFFFFF; stroke-width:0.1500; stroke-opacity:1; 
stroke-linecap:round; stroke-linejoin:round;">
</g>
<g style="fill:#FFFFFF; fill-opacity:0.0; 
stroke:#FFFFFF; stroke-width:0.1500; stroke-opacity:1; 
stroke-linecap:round; stroke-linejoin:round;">
<text x="157.3000" y="66.9000"
textLength="5.6786" font-size="1.3333" lengthAdjust="spacingAndGlyphs"
text-anchor="start" opacity="0">CONFIG</text>
<g class="stroked-text"><desc>CONFIG</desc>
<path d="M158.2082 66.6746
L158.1606 66.7222
" />
<path d="M158.1606 66.7222
L158.0177 66.7698
" />
<path d="M158.0177 66.7698
L157.9225 66.7698
" />
<path d="M157.9225 66.7698
L157.7796 66.7222
" />
<path d="M157.7796 66.7222
L157.6844 66.6270
" />
<path d="M157.6844 66.6270
L157.6368 66.5317
" />
<path d="M157.6368 66.5317
L157.5892 66.3412
" />
<path d="M157.5892 66.3412
L157.5892 66.1984
" />
<path d="M157.5892 66.1984
L157.6368 66.0079
" />
<path d="M157.6368 66.0079
L157.6844 65.9127
" />
<path d="M157.6844 65.9127
L157.7796 65.8174
" />
<path d="M157.7796 65.8174
L157.9225 65.7698
" />
<path d="M157.9225 65.7698
L158.0177 65.7698
" />
<path d="M158.0177 65.7698
L158.1606 65.8174
" />
<path d="M158.1606 65.8174
L158.2082 65.8651
" />
<path d="M158.8273 65.7698
L159.0177 65.7698
" />
<path d="M159.0177 65.7698
L159.1130 65.8174
" />
<path d="M159.1130 65.8174
L159.2082 65.9127
" />
<path d="M159.2082 65.9127
L159.2558 66.1032
" />
<path d="M159.2558 66.1032
L159.2558 66.4365
" />
<path d="M159.2558 66.4365
L159.2082 66.6270
" />
<path d="M159.2082 66.6270
L159.1130 66.7222
" />
<path d="M159.1130 66.7222
L159.0177 66.7698
" />
<path d="M159.0177 66.7698
L158.8273 66.7698
" />
<path d="M158.8273 66.7698
L158.7320 66.7222
" />
<path d="M158.7320 66.7222
L158.6368 66.6270
" />
<path d="M158.6368 66.6270
L158.5892 66.4365
" />
<path d="M158.5892 66.4365
L158.5892 66.1032
" />
<path d="M158.5892 66.1032
L158.6368 65.9127
" />
<path d="M158.6368 65.9127
L158.7320 65.8174
" />
<path d="M158.7320 65.8174
L158.8273 65.7698
" />
<path d="M159.6844 66.7698
L159.6844 65.7698
" />
<path d="M159.6844 65.7698
L160.2558 66.7698
" />
<path d="M160.2558 66.7698
L160.2558 65.7698
" />
<path d="M161.0653 66.2460
L160.7320 66.2460
" />
<path d="M160.7320 66.7698
L160.7320 65.7698
" />
<path d="M160.7320 65.7698
L161.2082 65.7698
" />
<path d="M161.5892 66.7698
L161.5892 65.7698
" />
<path d="M162.5892 65.8174
L162.4939 65.7698
" />
<path d="M162.4939 65.7698
L162.3511 65.7698
" />
<path d="M162.3511 65.7698
L162.2082 65.8174
" />
<path d="M162.2082 65.8174
L162.1130 65.9127
" />
<path d="M162.1130 65.9127
L162.0653 66.0079
" />
<path d="M162.0653 66.0079
L162.0177 66.1984
" />
<path d="M162.0177 66.1984
L162.0177 66.3412
" />
<path d="M162.0177 66.3412
L162.0653 66.5317
" />
<path d="M162.0653 66.5317
L162.1130 66.6270
" />
<path d="M162.1130 66.6270
L162.2082 66.7222
" />
<path d="M162.2082 66.7222
L162.3511 66.7698
" />
<path d="M162.3511 66.7698
L162.4463 66.7698
" />
<path d="M162.4463 66.7698
L162.5892 66.7222
" />
<path d="M162.5892 66.7222
L162.6368 66.6746
" />
<path d="M162.6368 66.6746
L162.6368 66.3412
" />
<path d="M162.6368 66.3412
L162.4463 66.3412
" />
</g><text x="168.2000" y="66.9000"
textLength="4.7738" font-size="1.3333" lengthAdjust="spacingAndGlyphs"
text-anchor="start" opacity="0">RESET</text>
<g class="stroked-text"><desc>RESET</desc>
<path d="M169.1082 66.7698
L168.7749 66.2936
" />
<path d="M168.5368 66.7698
L168.5368 65.7698
" />
<path d="M168.5368 65.7698
L168.9177 65.7698
" />
<path d="M168.9177 65.7698
L169.0130 65.8174
" />
<path d="M169.0130 65.8174
L169.0606 65.8651
" />
<path d="M169.0606 65.8651
L169.1082 65.9603
" />
<path d="M169.1082 65.9603
L169.1082 66.1032
" />
<path d="M169.1082 66.1032
L169.0606 66.1984
" />
<path d="M169.0606 66.1984
L169.0130 66.2460
" />
<path d="M169.0130 66.2460
L168.9177 66.2936
" />
<path d="M168.9177 66.2936
L168.5368 66.2936
" />
<path d="M169.5368 66.2460
L169.8701 66.2460
" />
<path d="M170.0130 66.7698
L169.5368 66.7698
" />
<path d="M169.5368 66.7698
L169.5368 65.7698
" />
<path d="M169.5368 65.7698
L170.0130 65.7698
" />
<path d="M170.3939 66.7222
L170.5368 66.7698
" />
<path d="M170.5368 66.7698
L170.7749 66.7698
" />
<path d="M170.7749 66.7698
L170.8701 66.7222
" />
<path d="M170.8701 66.7222
L170.9177 66.6746
" />
<path d="M170.9177 66.6746
L170.9654 66.5793
" />
<path d="M170.9654 66.5793
L170.9654 66.4841
" />
<path d="M170.9654 66.4841
L170.9177 66.3889
" />
<path d="M170.9177 66.3889
L170.8701 66.3412
" />
<path d="M170.8701 66.3412
L170.7749 66.2936
" />
<path d="M170.7749 66.2936
L170.5844 66.2460
" />
<path d="M170.5844 66.2460
L170.4892 66.1984
" />
<path d="M170.4892 66.1984
L170.4415 66.1508
" />
<path d="M170.4415 66.1508
L170.3939 66.0555
" />
<path d="M170.3939 66.0555
L170.3939 65.9603
" />
<path d="M170.3939 65.9603
L170.4415 65.8651
" />
<path d="M170.4415 65.8651
L170.4892 65.8174
" />
<path d="M170.4892 65.8174
L170.5844 65.7698
" />
<path d="M170.5844 65.7698
L170.8225 65.7698
" />
<path d="M170.8225 65.7698
L170.9654 65.8174
" />
<path d="M171.3939 66.2460
L171.7273 66.2460
" />
<path d="M171.8701 66.7698
L171.3939 66.7698
" />
<path d="M171.3939 66.7698
L171.3939 65.7698
" />
<path d="M171.3939 65.7698
L171.8701 65.7698
" />
<path d="M172.1558 65.7698
L172.7273 65.7698
" />
<path d="M172.4415 66.7698
L172.4415 65.7698
" />
</g></g>
<g style="fill:#FFFFFF; fill-opacity:0.0; 
stroke:#FFFFFF; stroke-width:0.1000; stroke-opacity:1; 
stroke-linecap:round; stroke-linejoin:round;">
<circle cx="160.0000" cy="63.7000" r="1.5000" /> 
<circle cx="170.5000" cy="63.7000" r="1.5000" /> 
</g>
<g style="fill:#FFFFFF; fill-opacity:0.0; 
stroke:#FFFFFF; stroke-width:0.1500; stroke-opacity:1; 
stroke-linecap:round; stroke-linejoin:round;">
<text x="167.7000" y="52.3500"
transform="scale(-1 1) translate(-335.400000 0)"
textLength="5.7262" font-size="1.3333" lengthAdjust="spacingAndGlyphs"
text-anchor="middle" opacity="0">0.61 in</text>
<g class="stroked-text"><desc>0.61 in</desc>
<path d="M170.0095 51.3048
L169.9143 51.3048
" />
<path d="M169.9143 51.3048
L169.8190 51.3524
" />
<path d="M169.8190 51.3524
L169.7714 51.4001
" />
<path d="M169.7714 51.4001
L169.7238 51.4953
" />
<path d="M169.7238 51.4953
L169.6762 51.6858
" />
<path d="M169.6762 51.6858
L169.6762 51.9239
" />
<path d="M169.6762 51.9239
L169.7238 52.1143
" />
<path d="M169.7238 52.1143
L169.7714 52.2096
" />
<path d="M169.7714 52.2096
L169.8190 52.2572
" />
<path d="M169.8190 52.2572
L169.9143 52.3048
" />
<path d="M169.9143 52.3048
L170.0095 52.3048
" />
<path d="M170.0095 52.3048
L170.1048 52.2572
" />
<path d="M170.1048 52.2572
L170.1524 52.2096
" />
<path d="M170.1524 52.2096
L170.2000 52.1143
" />
<path d="M170.2000 52.1143
L170.2476 51.9239
" />
<path d="M170.2476 51.9239
L170.2476 51.6858
" />
<path d="M170.2476 51.6858
L170.2000 51.4953
" />
<path d="M170.2000 51.4953
L170.1524 51.4001
" />
<path d="M170.1524 51.4001
L170.1048 51.3524
" />
<path d="M170.1048 51.3524
L170.0095 51.3048
" />
<path d="M169.2476 52.2096
L169.2000 52.2572
" />
<path d="M169.2000 52.2572
L169.2476 52.3048
" />
<path d="M169.2476 52.3048
L169.2952 52.2572
" />
<path d="M169.2952 52.2572
L169.2476 52.2096
" />
<path d="M169.2476 52.2096
L169.2476 52.3048
" />
<path d="M168.3429 51.3048
L168.5333 51.3048
" />
<path d="M168.5333 51.3048
L168.6286 51.3524
" />
<path d="M168.6286 51.3524
L168.6762 51.4001
" />
<path d="M168.6762 51.4001
L168.7714 51.5429
" />
<path d="M168.7714 51.5429
L168.8190 51.7334
" />
<path d="M168.8190 51.7334
L168.8190 52.1143
" />
<path d="M168.8190 52.1143
L168.7714 52.2096
" />
<path d="M168.7714 52.2096
L168.7238 52.2572
" />
<path d="M168.7238 52.2572
L168.6286 52.3048
" />
<path d="M168.6286 52.3048
L168.4381 52.3048
" />
<path d="M168.4381 52.3048
L168.3429 52.2572
" />
<path d="M168.3429 52.2572
L168.2952 52.2096
" />
<path d="M168.2952 52.2096
L168.2476 52.1143
" />
<path d="M168.2476 52.1143
L168.2476 51.8762
" />
<path d="M168.2476 51.8762
L168.2952 51.7810
" />
<path d="M168.2952 51.7810
L168.3429 51.7334
" />
<path d="M168.3429 51.7334
L168.4381 51.6858
" />
<path d="M168.4381 51.6858
L168.6286 51.6858
" />
<path d="M168.6286 51.6858
L168.7238 51.7334
" />
<path d="M168.7238 51.7334
L168.7714 51.7810
" />
<path d="M168.7714 51.7810
L168.8190 51.8762
" />
<path d="M167.2952 52.3048
L167.8667 52.3048
" />
<path d="M167.5810 52.3048
L167.5810 51.3048
" />
<path d="M167.5810 51.3048
L167.6762 51.4477
" />
<path d="M167.6762 51.4477
L167.7714 51.5429
" />
<path d="M167.7714 51.5429
L167.8667 51.5905
" />
<path d="M166.1048 52.3048
L166.1048 51.6382
" />
<path d="M166.1048 51.3048
L166.1524 51.3524
" />
<path d="M166.1524 51.3524
L166.1048 51.4001
" />
<path d="M166.1048 51.4001
L166.0571 51.3524
" />
<path d="M166.0571 51.3524
L166.1048 51.3048
" />
<path d="M166.1048 51.3048
L166.1048 51.4001
" />
<path d="M165.6286 51.6382
L165.6286 52.3048
" />
<path d="M165.6286 51.7334
L165.5810 51.6858
" />
<path d="M165.5810 51.6858
L165.4857 51.6382
" />
<path d="M165.4857 51.6382
L165.3429 51.6382
" />
<path d="M165.3429 51.6382
L165.2476 51.6858
" />
<path d="M165.2476 51.6858
L165.2000 51.7810
" />
<path d="M165.2000 51.7810
L165.2000 52.3048
" />
</g></g>
<g style="fill:#FFFFFF; fill-opacity:0.0; 
stroke:#FFFFFF; stroke-width:0.1000; stroke-opacity:1; 
stroke-linecap:round; stroke-linejoin:round;">
<path d="M175.4000 53.5000
L175.4000 53.5864
" />
<path d="M160.0000 53.5000
L160.0000 53.5864
" />
<path d="M175.4000 53.0000
L160.0000 53.0000
" />
<path d="M175.4000 53.0000
L160.0000 53.0000
" />
<path d="M175.4000 53.0000
L174.2735 53.5864
" />
<path d="M175.4000 53.0000
L174.2735 52.4136
" />
<path d="M160.0000 53.0000
L161.1265 52.4136
" />
<path d="M160.0000 53.0000
L161.1265 53.5864
" />
</g>
<g style="fill:#FFFFFF; fill-opacity:0.0; 
stroke:#FFFFFF; stroke-width:0.1500; stroke-opacity:1; 
stroke-linecap:round; stroke-linejoin:round;">
<text x="172.9500" y="54.3500"
transform="scale(-1 1) translate(-345.900000 0)"
textLength="5.7262" font-size="1.3333" lengthAdjust="spacingAndGlyphs"
text-anchor="middle" opacity="0">0.19 in</text>
<g class="stroked-text"><desc>0.19 in</desc>
<path d="M175.2595 53.3048
L175.1643 53.3048
" />
<path d="M175.1643 53.3048
L175.0690 53.3524
" />
<path d="M175.0690 53.3524
L175.0214 53.4001
" />
<path d="M175.0214 53.4001
L174.9738 53.4953
" />
<path d="M174.9738 53.4953
L174.9262 53.6858
" />
<path d="M174.9262 53.6858
L174.9262 53.9239
" />
<path d="M174.9262 53.9239
L174.9738 54.1143
" />
<path d="M174.9738 54.1143
L175.0214 54.2096
" />
<path d="M175.0214 54.2096
L175.0690 54.2572
" />
<path d="M175.0690 54.2572
L175.1643 54.3048
" />
<path d="M175.1643 54.3048
L175.2595 54.3048
" />
<path d="M175.2595 54.3048
L175.3548 54.2572
" />
<path d="M175.3548 54.2572
L175.4024 54.2096
" />
<path d="M175.4024 54.2096
L175.4500 54.1143
" />
<path d="M175.4500 54.1143
L175.4976 53.9239
" />
<path d="M175.4976 53.9239
L175.4976 53.6858
" />
<path d="M175.4976 53.6858
L175.4500 53.4953
" />
<path d="M175.4500 53.4953
L175.4024 53.4001
" />
<path d="M175.4024 53.4001
L175.3548 53.3524
" />
<path d="M175.3548 53.3524
L175.2595 53.3048
" />
<path d="M174.4976 54.2096
L174.4500 54.2572
" />
<path d="M174.4500 54.2572
L174.4976 54.3048
" />
<path d="M174.4976 54.3048
L174.5452 54.2572
" />
<path d="M174.5452 54.2572
L174.4976 54.2096
" />
<path d="M174.4976 54.2096
L174.4976 54.3048
" />
<path d="M173.4976 54.3048
L174.0690 54.3048
" />
<path d="M173.7833 54.3048
L173.7833 53.3048
" />
<path d="M173.7833 53.3048
L173.8786 53.4477
" />
<path d="M173.8786 53.4477
L173.9738 53.5429
" />
<path d="M173.9738 53.5429
L174.0690 53.5905
" />
<path d="M173.0214 54.3048
L172.8310 54.3048
" />
<path d="M172.8310 54.3048
L172.7357 54.2572
" />
<path d="M172.7357 54.2572
L172.6881 54.2096
" />
<path d="M172.6881 54.2096
L172.5929 54.0667
" />
<path d="M172.5929 54.0667
L172.5452 53.8762
" />
<path d="M172.5452 53.8762
L172.5452 53.4953
" />
<path d="M172.5452 53.4953
L172.5929 53.4001
" />
<path d="M172.5929 53.4001
L172.6405 53.3524
" />
<path d="M172.6405 53.3524
L172.7357 53.3048
" />
<path d="M172.7357 53.3048
L172.9262 53.3048
" />
<path d="M172.9262 53.3048
L173.0214 53.3524
" />
<path d="M173.0214 53.3524
L173.0690 53.4001
" />
<path d="M173.0690 53.4001
L173.1167 53.4953
" />
<path d="M173.1167 53.4953
L173.1167 53.7334
" />
<path d="M173.1167 53.7334
L173.0690 53.8286
" />
<path d="M173.0690 53.8286
L173.0214 53.8762
" />
<path d="M173.0214 53.8762
L172.9262 53.9239
" />
<path d="M172.9262 53.9239
L172.7357 53.9239
" />
<path d="M172.7357 53.9239
L172.6405 53.8762
" />
<path d="M172.6405 53.8762
L172.5929 53.8286
" />
<path d="M172.5929 53.8286
L172.5452 53.7334
" />
<path d="M171.3548 54.3048
L171.3548 53.6382
" />
<path d="M171.3548 53.3048
L171.4024 53.3524
" />
<path d="M171.4024 53.3524
L171.3548 53.4001
" />
<path d="M171.3548 53.4001
L171.3071 53.3524
" />
<path d="M171.3071 53.3524
L171.3548 53.3048
" />
<path d="M171.3548 53.3048
L171.3548 53.4001
" />
<path d="M170.8786 53.6382
L170.8786 54.3048
" />
<path d="M170.8786 53.7334
L170.8310 53.6858
" />
<path d="M170.8310 53.6858
L170.7357 53.6382
" />
<path d="M170.7357 53.6382
L170.5929 53.6382
" />
<path d="M170.5929 53.6382
L170.4976 53.6858
" />
<path d="M170.4976 53.6858
L170.4500 53.7810
" />
<path d="M170.4500 53.7810
L170.4500 54.3048
" />
</g></g>
<g style="fill:#FFFFFF; fill-opacity:0.0; 
stroke:#FFFFFF; stroke-width:0.1000; stroke-opacity:1; 
stroke-linecap:round; stroke-linejoin:round;">
<path d="M175.4000 55.5000
L175.4000 55.5864
" />
<path d="M170.5000 55.5000
L170.5000 55.5864
" />
<path d="M175.4000 55.0000
L170.5000 55.0000
" />
<path d="M175.4000 55.0000
L170.5000 55.0000
" />
<path d="M175.4000 55.0000
L174.2735 55.5864
" />
<path d="M175.4000 55.0000
L174.2735 54.4136
" />
<path d="M170.5000 55.0000
L171.6265 54.4136
" />
<path d="M170.5000 55.0000
L171.6265 55.5864
" />
<path d="M160.0000 53.0000
L160.0000 70.0000
" />
<path d="M170.5000 55.0000
L170.5000 70.0000
" />
</g>
<g style="fill:#FFFFFF; fill-opacity:0.0; 
stroke:#FFFFFF; stroke-width:0.1500; stroke-opacity:1; 
stroke-linecap:round; stroke-linejoin:round;">
<g transform="rotate(-90.000000 176.5000 66.0600)">
<text x="176.5000" y="66.5600"
transform="scale(-1 1) translate(-353.000000 0)"
textLength="5.7262" font-size="1.3333" lengthAdjust="spacingAndGlyphs"
text-anchor="middle" opacity="0">0.19 in</text>
</g>
<g class="stroked-text"><desc>0.19 in</desc>
<path d="M175.9548 63.7505
L175.9548 63.8457
" />
<path d="M175.9548 63.8457
L176.0024 63.9410
" />
<path d="M176.0024 63.9410
L176.0501 63.9886
" />
<path d="M176.0501 63.9886
L176.1453 64.0362
" />
<path d="M176.1453 64.0362
L176.3358 64.0838
" />
<path d="M176.3358 64.0838
L176.5739 64.0838
" />
<path d="M176.5739 64.0838
L176.7643 64.0362
" />
<path d="M176.7643 64.0362
L176.8596 63.9886
" />
<path d="M176.8596 63.9886
L176.9072 63.9410
" />
<path d="M176.9072 63.9410
L176.9548 63.8457
" />
<path d="M176.9548 63.8457
L176.9548 63.7505
" />
<path d="M176.9548 63.7505
L176.9072 63.6552
" />
<path d="M176.9072 63.6552
L176.8596 63.6076
" />
<path d="M176.8596 63.6076
L176.7643 63.5600
" />
<path d="M176.7643 63.5600
L176.5739 63.5124
" />
<path d="M176.5739 63.5124
L176.3358 63.5124
" />
<path d="M176.3358 63.5124
L176.1453 63.5600
" />
<path d="M176.1453 63.5600
L176.0501 63.6076
" />
<path d="M176.0501 63.6076
L176.0024 63.6552
" />
<path d="M176.0024 63.6552
L175.9548 63.7505
" />
<path d="M176.8596 64.5124
L176.9072 64.5600
" />
<path d="M176.9072 64.5600
L176.9548 64.5124
" />
<path d="M176.9548 64.5124
L176.9072 64.4648
" />
<path d="M176.9072 64.4648
L176.8596 64.5124
" />
<path d="M176.8596 64.5124
L176.9548 64.5124
" />
<path d="M176.9548 65.5124
L176.9548 64.9410
" />
<path d="M176.9548 65.2267
L175.9548 65.2267
" />
<path d="M175.9548 65.2267
L176.0977 65.1314
" />
<path d="M176.0977 65.1314
L176.1929 65.0362
" />
<path d="M176.1929 65.0362
L176.2405 64.9410
" />
<path d="M176.9548 65.9886
L176.9548 66.1790
" />
<path d="M176.9548 66.1790
L176.9072 66.2743
" />
<path d="M176.9072 66.2743
L176.8596 66.3219
" />
<path d="M176.8596 66.3219
L176.7167 66.4171
" />
<path d="M176.7167 66.4171
L176.5262 66.4648
" />
<path d="M176.5262 66.4648
L176.1453 66.4648
" />
<path d="M176.1453 66.4648
L176.0501 66.4171
" />
<path d="M176.0501 66.4171
L176.0024 66.3695
" />
<path d="M176.0024 66.3695
L175.9548 66.2743
" />
<path d="M175.9548 66.2743
L175.9548 66.0838
" />
<path d="M175.9548 66.0838
L176.0024 65.9886
" />
<path d="M176.0024 65.9886
L176.0501 65.9410
" />
<path d="M176.0501 65.9410
L176.1453 65.8933
" />
<path d="M176.1453 65.8933
L176.3834 65.8933
" />
<path d="M176.3834 65.8933
L176.4786 65.9410
" />
<path d="M176.4786 65.9410
L176.5262 65.9886
" />
<path d="M176.5262 65.9886
L176.5739 66.0838
" />
<path d="M176.5739 66.0838
L176.5739 66.2743
" />
<path d="M176.5739 66.2743
L176.5262 66.3695
" />
<path d="M176.5262 66.3695
L176.4786 66.4171
" />
<path d="M176.4786 66.4171
L176.3834 66.4648
" />
<path d="M176.9548 67.6552
L176.2882 67.6552
" />
<path d="M175.9548 67.6552
L176.0024 67.6076
" />
<path d="M176.0024 67.6076
L176.0501 67.6552
" />
<path d="M176.0501 67.6552
L176.0024 67.7029
" />
<path d="M176.0024 67.7029
L175.9548 67.6552
" />
<path d="M175.9548 67.6552
L176.0501 67.6552
" />
<path d="M176.2882 68.1314
L176.9548 68.1314
" />
<path d="M176.3834 68.1314
L176.3358 68.1790
" />
<path d="M176.3358 68.1790
L176.2882 68.2743
" />
<path d="M176.2882 68.2743
L176.2882 68.4171
" />
<path d="M176.2882 68.4171
L176.3358 68.5124
" />
<path d="M176.3358 68.5124
L176.4310 68.5600
" />
<path d="M176.4310 68.5600
L176.9548 68.5600
" />
</g></g>
<g style="fill:#FFFFFF; fill-opacity:0.0; 
stroke:#FFFFFF; stroke-width:0.1000; stroke-opacity:1; 
stroke-linecap:round; stroke-linejoin:round;">
<path d="M175.9000 59.0000
L177.0864 59.0000
" />
<path d="M175.9000 63.7000
L177.0864 63.7000
" />
<path d="M176.5000 59.0000
L176.5000 62.6969
" />
<path d="M176.5000 59.0000
L177.0864 60.1265
" />
<path d="M176.5000 59.0000
L175.9136 60.1265
" />
<path d="M176.5000 63.7000
L175.9136 62.5735
" />
<path d="M176.5000 63.7000
L177.0864 62.5735
" />
<path d="M177.0000 63.7000
L155.0000 63.7000
" />
<path d="M150.0000 78.0000
L96.0000 78.0000
" />
<path d="M219.8000 92.3000
L165.8000 92.3000
" />
<path d="M146.5000 63.7000
L92.5000 63.7000
" />
<path d="M212.4000 74.5000
L158.4000 74.5000
" />
<path d="M150.0000 57.0000
L150.0000 99.0000
" />
<path d="M177.0000 74.4400
L170.0000 74.4400
" />
<path d="M123.0000 79.5200
L130.0000 79.5200
" />
<path d="M124.0000 97.0500
L123.0000 97.0500
" />
<path d="M124.6000 58.5000
L124.6000 57.0000
" />
<path d="M128.1600 85.0000
L128.1600 57.0000
" />
<path d="M171.8400 57.0000
L171.8400 78.9600
" />
<path d="M175.4000 58.5000
L175.4000 53.0000
" />
<path d="M177.0000 78.0000
L123.0000 78.0000
" />
</g>
<g style="fill:#FFFFFF; fill-opacity:0.0; 
stroke:#FFFFFF; stroke-width:0.1500; stroke-opacity:1; 
stroke-linecap:round; stroke-linejoin:round;">
<text x="173.6200" y="56.3500"
transform="scale(-1 1) translate(-347.240000 0)"
textLength="5.7262" font-size="1.3333" lengthAdjust="spacingAndGlyphs"
text-anchor="middle" opacity="0">0.14 in</text>
<g class="stroked-text"><desc>0.14 in</desc>
<path d="M175.9295 55.3048
L175.8343 55.3048
" />
<path d="M175.8343 55.3048
L175.7390 55.3524
" />
<path d="M175.7390 55.3524
L175.6914 55.4001
" />
<path d="M175.6914 55.4001
L175.6438 55.4953
" />
<path d="M175.6438 55.4953
L175.5962 55.6858
" />
<path d="M175.5962 55.6858
L175.5962 55.9239
" />
<path d="M175.5962 55.9239
L175.6438 56.1143
" />
<path d="M175.6438 56.1143
L175.6914 56.2096
" />
<path d="M175.6914 56.2096
L175.7390 56.2572
" />
<path d="M175.7390 56.2572
L175.8343 56.3048
" />
<path d="M175.8343 56.3048
L175.9295 56.3048
" />
<path d="M175.9295 56.3048
L176.0248 56.2572
" />
<path d="M176.0248 56.2572
L176.0724 56.2096
" />
<path d="M176.0724 56.2096
L176.1200 56.1143
" />
<path d="M176.1200 56.1143
L176.1676 55.9239
" />
<path d="M176.1676 55.9239
L176.1676 55.6858
" />
<path d="M176.1676 55.6858
L176.1200 55.4953
" />
<path d="M176.1200 55.4953
L176.0724 55.4001
" />
<path d="M176.0724 55.4001
L176.0248 55.3524
" />
<path d="M176.0248 55.3524
L175.9295 55.3048
" />
<path d="M175.1676 56.2096
L175.1200 56.2572
" />
<path d="M175.1200 56.2572
L175.1676 56.3048
" />
<path d="M175.1676 56.3048
L175.2152 56.2572
" />
<path d="M175.2152 56.2572
L175.1676 56.2096
" />
<path d="M175.1676 56.2096
L175.1676 56.3048
" />
<path d="M174.1676 56.3048
L174.7390 56.3048
" />
<path d="M174.4533 56.3048
L174.4533 55.3048
" />
<path d="M174.4533 55.3048
L174.5486 55.4477
" />
<path d="M174.5486 55.4477
L174.6438 55.5429
" />
<path d="M174.6438 55.5429
L174.7390 55.5905
" />
<path d="M173.3105 55.6382
L173.3105 56.3048
" />
<path d="M173.5486 55.2572
L173.7867 55.9715
" />
<path d="M173.7867 55.9715
L173.1676 55.9715
" />
<path d="M172.0248 56.3048
L172.0248 55.6382
" />
<path d="M172.0248 55.3048
L172.0724 55.3524
" />
<path d="M172.0724 55.3524
L172.0248 55.4001
" />
<path d="M172.0248 55.4001
L171.9771 55.3524
" />
<path d="M171.9771 55.3524
L172.0248 55.3048
" />
<path d="M172.0248 55.3048
L172.0248 55.4001
" />
<path d="M171.5486 55.6382
L171.5486 56.3048
" />
<path d="M171.5486 55.7334
L171.5010 55.6858
" />
<path d="M171.5010 55.6858
L171.4057 55.6382
" />
<path d="M171.4057 55.6382
L171.2629 55.6382
" />
<path d="M171.2629 55.6382
L171.1676 55.6858
" />
<path d="M171.1676 55.6858
L171.1200 55.7810
" />
<path d="M171.1200 55.7810
L171.1200 56.3048
" />
</g></g>
<g style="fill:#FFFFFF; fill-opacity:0.0; 
stroke:#FFFFFF; stroke-width:0.1000; stroke-opacity:1; 
stroke-linecap:round; stroke-linejoin:round;">
<path d="M175.4000 57.5000
L175.4000 57.5864
" />
<path d="M171.8400 57.5000
L171.8400 57.5864
" />
<path d="M175.4000 57.0000
L171.8400 57.0000
" />
<path d="M175.4000 57.0000
L171.8400 57.0000
" />
<path d="M175.4000 57.0000
L174.2735 57.5864
" />
<path d="M175.4000 57.0000
L174.2735 56.4136
" />
<path d="M171.8400 57.0000
L172.9665 56.4136
" />
<path d="M171.8400 57.0000
L172.9665 57.5864
" />
</g>
<g style="fill:#FFFFFF; fill-opacity:0.0; 
stroke:#FFFFFF; stroke-width:0.1500; stroke-opacity:1; 
stroke-linecap:round; stroke-linejoin:round;">
<g transform="rotate(-90.000000 120.7500 88.2850)">
<text x="120.7500" y="88.7850"
transform="scale(-1 1) translate(-241.500002 0)"
textLength="5.7262" font-size="1.3333" lengthAdjust="spacingAndGlyphs"
text-anchor="middle" opacity="0">0.69 in</text>
</g>
<g class="stroked-text"><desc>0.69 in</desc>
<path d="M120.2048 85.9755
L120.2048 86.0707
" />
<path d="M120.2048 86.0707
L120.2524 86.1660
" />
<path d="M120.2524 86.1660
L120.3001 86.2136
" />
<path d="M120.3001 86.2136
L120.3953 86.2612
" />
<path d="M120.3953 86.2612
L120.5858 86.3088
" />
<path d="M120.5858 86.3088
L120.8239 86.3088
" />
<path d="M120.8239 86.3088
L121.0143 86.2612
" />
<path d="M121.0143 86.2612
L121.1096 86.2136
" />
<path d="M121.1096 86.2136
L121.1572 86.1660
" />
<path d="M121.1572 86.1660
L121.2048 86.0707
" />
<path d="M121.2048 86.0707
L121.2048 85.9755
" />
<path d="M121.2048 85.9755
L121.1572 85.8802
" />
<path d="M121.1572 85.8802
L121.1096 85.8326
" />
<path d="M121.1096 85.8326
L121.0143 85.7850
" />
<path d="M121.0143 85.7850
L120.8239 85.7374
" />
<path d="M120.8239 85.7374
L120.5858 85.7374
" />
<path d="M120.5858 85.7374
L120.3953 85.7850
" />
<path d="M120.3953 85.7850
L120.3001 85.8326
" />
<path d="M120.3001 85.8326
L120.2524 85.8802
" />
<path d="M120.2524 85.8802
L120.2048 85.9755
" />
<path d="M121.1096 86.7374
L121.1572 86.7850
" />
<path d="M121.1572 86.7850
L121.2048 86.7374
" />
<path d="M121.2048 86.7374
L121.1572 86.6898
" />
<path d="M121.1572 86.6898
L121.1096 86.7374
" />
<path d="M121.1096 86.7374
L121.2048 86.7374
" />
<path d="M120.2048 87.6421
L120.2048 87.4517
" />
<path d="M120.2048 87.4517
L120.2524 87.3564
" />
<path d="M120.2524 87.3564
L120.3001 87.3088
" />
<path d="M120.3001 87.3088
L120.4429 87.2136
" />
<path d="M120.4429 87.2136
L120.6334 87.1660
" />
<path d="M120.6334 87.1660
L121.0143 87.1660
" />
<path d="M121.0143 87.1660
L121.1096 87.2136
" />
<path d="M121.1096 87.2136
L121.1572 87.2612
" />
<path d="M121.1572 87.2612
L121.2048 87.3564
" />
<path d="M121.2048 87.3564
L121.2048 87.5469
" />
<path d="M121.2048 87.5469
L121.1572 87.6421
" />
<path d="M121.1572 87.6421
L121.1096 87.6898
" />
<path d="M121.1096 87.6898
L121.0143 87.7374
" />
<path d="M121.0143 87.7374
L120.7762 87.7374
" />
<path d="M120.7762 87.7374
L120.6810 87.6898
" />
<path d="M120.6810 87.6898
L120.6334 87.6421
" />
<path d="M120.6334 87.6421
L120.5858 87.5469
" />
<path d="M120.5858 87.5469
L120.5858 87.3564
" />
<path d="M120.5858 87.3564
L120.6334 87.2612
" />
<path d="M120.6334 87.2612
L120.6810 87.2136
" />
<path d="M120.6810 87.2136
L120.7762 87.1660
" />
<path d="M121.2048 88.2136
L121.2048 88.4040
" />
<path d="M121.2048 88.4040
L121.1572 88.4993
" />
<path d="M121.1572 88.4993
L121.1096 88.5469
" />
<path d="M121.1096 88.5469
L120.9667 88.6421
" />
<path d="M120.9667 88.6421
L120.7762 88.6898
" />
<path d="M120.7762 88.6898
L120.3953 88.6898
" />
<path d="M120.3953 88.6898
L120.3001 88.6421
" />
<path d="M120.3001 88.6421
L120.2524 88.5945
" />
<path d="M120.2524 88.5945
L120.2048 88.4993
" />
<path d="M120.2048 88.4993
L120.2048 88.3088
" />
<path d="M120.2048 88.3088
L120.2524 88.2136
" />
<path d="M120.2524 88.2136
L120.3001 88.1660
" />
<path d="M120.3001 88.1660
L120.3953 88.1183
" />
<path d="M120.3953 88.1183
L120.6334 88.1183
" />
<path d="M120.6334 88.1183
L120.7286 88.1660
" />
<path d="M120.7286 88.1660
L120.7762 88.2136
" />
<path d="M120.7762 88.2136
L120.8239 88.3088
" />
<path d="M120.8239 88.3088
L120.8239 88.4993
" />
<path d="M120.8239 88.4993
L120.7762 88.5945
" />
<path d="M120.7762 88.5945
L120.7286 88.6421
" />
<path d="M120.7286 88.6421
L120.6334 88.6898
" />
<path d="M121.2048 89.8802
L120.5382 89.8802
" />
<path d="M120.2048 89.8802
L120.2524 89.8326
" />
<path d="M120.2524 89.8326
L120.3001 89.8802
" />
<path d="M120.3001 89.8802
L120.2524 89.9279
" />
<path d="M120.2524 89.9279
L120.2048 89.8802
" />
<path d="M120.2048 89.8802
L120.3001 89.8802
" />
<path d="M120.5382 90.3564
L121.2048 90.3564
" />
<path d="M120.6334 90.3564
L120.5858 90.4040
" />
<path d="M120.5858 90.4040
L120.5382 90.4993
" />
<path d="M120.5382 90.4993
L120.5382 90.6421
" />
<path d="M120.5382 90.6421
L120.5858 90.7374
" />
<path d="M120.5858 90.7374
L120.6810 90.7850
" />
<path d="M120.6810 90.7850
L121.2048 90.7850
" />
</g></g>
<g style="fill:#FFFFFF; fill-opacity:0.0; 
stroke:#FFFFFF; stroke-width:0.1000; stroke-opacity:1; 
stroke-linecap:round; stroke-linejoin:round;">
<path d="M122.5000 79.5200
L121.3136 79.5200
" />
<path d="M122.5000 97.0500
L121.3136 97.0500
" />
<path d="M121.9000 79.5200
L121.9000 97.0500
" />
<path d="M121.9000 79.5200
L121.9000 97.0500
" />
<path d="M121.9000 79.5200
L122.4864 80.6465
" />
<path d="M121.9000 79.5200
L121.3136 80.6465
" />
<path d="M121.9000 97.0500
L121.3136 95.9235
" />
<path d="M121.9000 97.0500
L122.4864 95.9235
" />
</g>
<g style="fill:#FFFFFF; fill-opacity:0.0; 
stroke:#FFFFFF; stroke-width:0.1500; stroke-opacity:1; 
stroke-linecap:round; stroke-linejoin:round;">
<text x="139.0800" y="56.3500"
transform="scale(-1 1) translate(-278.160000 0)"
textLength="5.7262" font-size="1.3333" lengthAdjust="spacingAndGlyphs"
text-anchor="middle" opacity="0">0.86 in</text>
<g class="stroked-text"><desc>0.86 in</desc>
<path d="M141.3895 55.3048
L141.2943 55.3048
" />
<path d="M141.2943 55.3048
L141.1990 55.3524
" />
<path d="M141.1990 55.3524
L141.1514 55.4001
" />
<path d="M141.1514 55.4001
L141.1038 55.4953
" />
<path d="M141.1038 55.4953
L141.0562 55.6858
" />
<path d="M141.0562 55.6858
L141.0562 55.9239
" />
<path d="M141.0562 55.9239
L141.1038 56.1143
" />
<path d="M141.1038 56.1143
L141.1514 56.2096
" />
<path d="M141.1514 56.2096
L141.1990 56.2572
" />
<path d="M141.1990 56.2572
L141.2943 56.3048
" />
<path d="M141.2943 56.3048
L141.3895 56.3048
" />
<path d="M141.3895 56.3048
L141.4848 56.2572
" />
<path d="M141.4848 56.2572
L141.5324 56.2096
" />
<path d="M141.5324 56.2096
L141.5800 56.1143
" />
<path d="M141.5800 56.1143
L141.6276 55.9239
" />
<path d="M141.6276 55.9239
L141.6276 55.6858
" />
<path d="M141.6276 55.6858
L141.5800 55.4953
" />
<path d="M141.5800 55.4953
L141.5324 55.4001
" />
<path d="M141.5324 55.4001
L141.4848 55.3524
" />
<path d="M141.4848 55.3524
L141.3895 55.3048
" />
<path d="M140.6276 56.2096
L140.5800 56.2572
" />
<path d="M140.5800 56.2572
L140.6276 56.3048
" />
<path d="M140.6276 56.3048
L140.6752 56.2572
" />
<path d="M140.6752 56.2572
L140.6276 56.2096
" />
<path d="M140.6276 56.2096
L140.6276 56.3048
" />
<path d="M140.0086 55.7334
L140.1038 55.6858
" />
<path d="M140.1038 55.6858
L140.1514 55.6382
" />
<path d="M140.1514 55.6382
L140.1990 55.5429
" />
<path d="M140.1990 55.5429
L140.1990 55.4953
" />
<path d="M140.1990 55.4953
L140.1514 55.4001
" />
<path d="M140.1514 55.4001
L140.1038 55.3524
" />
<path d="M140.1038 55.3524
L140.0086 55.3048
" />
<path d="M140.0086 55.3048
L139.8181 55.3048
" />
<path d="M139.8181 55.3048
L139.7229 55.3524
" />
<path d="M139.7229 55.3524
L139.6752 55.4001
" />
<path d="M139.6752 55.4001
L139.6276 55.4953
" />
<path d="M139.6276 55.4953
L139.6276 55.5429
" />
<path d="M139.6276 55.5429
L139.6752 55.6382
" />
<path d="M139.6752 55.6382
L139.7229 55.6858
" />
<path d="M139.7229 55.6858
L139.8181 55.7334
" />
<path d="M139.8181 55.7334
L140.0086 55.7334
" />
<path d="M140.0086 55.7334
L140.1038 55.7810
" />
<path d="M140.1038 55.7810
L140.1514 55.8286
" />
<path d="M140.1514 55.8286
L140.1990 55.9239
" />
<path d="M140.1990 55.9239
L140.1990 56.1143
" />
<path d="M140.1990 56.1143
L140.1514 56.2096
" />
<path d="M140.1514 56.2096
L140.1038 56.2572
" />
<path d="M140.1038 56.2572
L140.0086 56.3048
" />
<path d="M140.0086 56.3048
L139.8181 56.3048
" />
<path d="M139.8181 56.3048
L139.7229 56.2572
" />
<path d="M139.7229 56.2572
L139.6752 56.2096
" />
<path d="M139.6752 56.2096
L139.6276 56.1143
" />
<path d="M139.6276 56.1143
L139.6276 55.9239
" />
<path d="M139.6276 55.9239
L139.6752 55.8286
" />
<path d="M139.6752 55.8286
L139.7229 55.7810
" />
<path d="M139.7229 55.7810
L139.8181 55.7334
" />
<path d="M138.7705 55.3048
L138.9610 55.3048
" />
<path d="M138.9610 55.3048
L139.0562 55.3524
" />
<path d="M139.0562 55.3524
L139.1038 55.4001
" />
<path d="M139.1038 55.4001
L139.1990 55.5429
" />
<path d="M139.1990 55.5429
L139.2467 55.7334
" />
<path d="M139.2467 55.7334
L139.2467 56.1143
" />
<path d="M139.2467 56.1143
L139.1990 56.2096
" />
<path d="M139.1990 56.2096
L139.1514 56.2572
" />
<path d="M139.1514 56.2572
L139.0562 56.3048
" />
<path d="M139.0562 56.3048
L138.8657 56.3048
" />
<path d="M138.8657 56.3048
L138.7705 56.2572
" />
<path d="M138.7705 56.2572
L138.7229 56.2096
" />
<path d="M138.7229 56.2096
L138.6752 56.1143
" />
<path d="M138.6752 56.1143
L138.6752 55.8762
" />
<path d="M138.6752 55.8762
L138.7229 55.7810
" />
<path d="M138.7229 55.7810
L138.7705 55.7334
" />
<path d="M138.7705 55.7334
L138.8657 55.6858
" />
<path d="M138.8657 55.6858
L139.0562 55.6858
" />
<path d="M139.0562 55.6858
L139.1514 55.7334
" />
<path d="M139.1514 55.7334
L139.1990 55.7810
" />
<path d="M139.1990 55.7810
L139.2467 55.8762
" />
<path d="M137.4848 56.3048
L137.4848 55.6382
" />
<path d="M137.4848 55.3048
L137.5324 55.3524
" />
<path d="M137.5324 55.3524
L137.4848 55.4001
" />
<path d="M137.4848 55.4001
L137.4371 55.3524
" />
<path d="M137.4371 55.3524
L137.4848 55.3048
" />
<path d="M137.4848 55.3048
L137.4848 55.4001
" />
<path d="M137.0086 55.6382
L137.0086 56.3048
" />
<path d="M137.0086 55.7334
L136.9610 55.6858
" />
<path d="M136.9610 55.6858
L136.8657 55.6382
" />
<path d="M136.8657 55.6382
L136.7229 55.6382
" />
<path d="M136.7229 55.6382
L136.6276 55.6858
" />
<path d="M136.6276 55.6858
L136.5800 55.7810
" />
<path d="M136.5800 55.7810
L136.5800 56.3048
" />
</g></g>
<g style="fill:#FFFFFF; fill-opacity:0.0; 
stroke:#FFFFFF; stroke-width:0.1000; stroke-opacity:1; 
stroke-linecap:round; stroke-linejoin:round;">
<path d="M150.0000 57.5000
L150.0000 57.5864
" />
<path d="M128.1600 57.5000
L128.1600 57.5864
" />
<path d="M150.0000 57.0000
L128.1600 57.0000
" />
<path d="M150.0000 57.0000
L128.1600 57.0000
" />
<path d="M150.0000 57.0000
L148.8735 57.5864
" />
<path d="M150.0000 57.0000
L148.8735 56.4136
" />
<path d="M128.1600 57.0000
L129.2865 56.4136
" />
<path d="M128.1600 57.0000
L129.2865 57.5864
" />
</g>
<g style="fill:#FFFFFF; fill-opacity:0.0; 
stroke:#FFFFFF; stroke-width:0.1500; stroke-opacity:1; 
stroke-linecap:round; stroke-linejoin:round;">
<text x="126.3800" y="56.3500"
transform="scale(-1 1) translate(-252.760000 0)"
textLength="5.7262" font-size="1.3333" lengthAdjust="spacingAndGlyphs"
text-anchor="middle" opacity="0">0.14 in</text>
<g class="stroked-text"><desc>0.14 in</desc>
<path d="M128.6895 55.3048
L128.5943 55.3048
" />
<path d="M128.5943 55.3048
L128.4990 55.3524
" />
<path d="M128.4990 55.3524
L128.4514 55.4001
" />
<path d="M128.4514 55.4001
L128.4038 55.4953
" />
<path d="M128.4038 55.4953
L128.3562 55.6858
" />
<path d="M128.3562 55.6858
L128.3562 55.9239
" />
<path d="M128.3562 55.9239
L128.4038 56.1143
" />
<path d="M128.4038 56.1143
L128.4514 56.2096
" />
<path d="M128.4514 56.2096
L128.4990 56.2572
" />
<path d="M128.4990 56.2572
L128.5943 56.3048
" />
<path d="M128.5943 56.3048
L128.6895 56.3048
" />
<path d="M128.6895 56.3048
L128.7848 56.2572
" />
<path d="M128.7848 56.2572
L128.8324 56.2096
" />
<path d="M128.8324 56.2096
L128.8800 56.1143
" />
<path d="M128.8800 56.1143
L128.9276 55.9239
" />
<path d="M128.9276 55.9239
L128.9276 55.6858
" />
<path d="M128.9276 55.6858
L128.8800 55.4953
" />
<path d="M128.8800 55.4953
L128.8324 55.4001
" />
<path d="M128.8324 55.4001
L128.7848 55.3524
" />
<path d="M128.7848 55.3524
L128.6895 55.3048
" />
<path d="M127.9276 56.2096
L127.8800 56.2572
" />
<path d="M127.8800 56.2572
L127.9276 56.3048
" />
<path d="M127.9276 56.3048
L127.9752 56.2572
" />
<path d="M127.9752 56.2572
L127.9276 56.2096
" />
<path d="M127.9276 56.2096
L127.9276 56.3048
" />
<path d="M126.9276 56.3048
L127.4990 56.3048
" />
<path d="M127.2133 56.3048
L127.2133 55.3048
" />
<path d="M127.2133 55.3048
L127.3086 55.4477
" />
<path d="M127.3086 55.4477
L127.4038 55.5429
" />
<path d="M127.4038 55.5429
L127.4990 55.5905
" />
<path d="M126.0705 55.6382
L126.0705 56.3048
" />
<path d="M126.3086 55.2572
L126.5467 55.9715
" />
<path d="M126.5467 55.9715
L125.9276 55.9715
" />
<path d="M124.7848 56.3048
L124.7848 55.6382
" />
<path d="M124.7848 55.3048
L124.8324 55.3524
" />
<path d="M124.8324 55.3524
L124.7848 55.4001
" />
<path d="M124.7848 55.4001
L124.7371 55.3524
" />
<path d="M124.7371 55.3524
L124.7848 55.3048
" />
<path d="M124.7848 55.3048
L124.7848 55.4001
" />
<path d="M124.3086 55.6382
L124.3086 56.3048
" />
<path d="M124.3086 55.7334
L124.2610 55.6858
" />
<path d="M124.2610 55.6858
L124.1657 55.6382
" />
<path d="M124.1657 55.6382
L124.0229 55.6382
" />
<path d="M124.0229 55.6382
L123.9276 55.6858
" />
<path d="M123.9276 55.6858
L123.8800 55.7810
" />
<path d="M123.8800 55.7810
L123.8800 56.3048
" />
</g></g>
<g style="fill:#FFFFFF; fill-opacity:0.0; 
stroke:#FFFFFF; stroke-width:0.1000; stroke-opacity:1; 
stroke-linecap:round; stroke-linejoin:round;">
<path d="M128.1600 57.5000
L128.1600 57.5864
" />
<path d="M124.6000 57.5000
L124.6000 57.5864
" />
<path d="M128.1600 57.0000
L124.6000 57.0000
" />
<path d="M128.1600 57.0000
L124.6000 57.0000
" />
<path d="M128.1600 57.0000
L127.0335 57.5864
" />
<path d="M128.1600 57.0000
L127.0335 56.4136
" />
<path d="M124.6000 57.0000
L125.7265 56.4136
" />
<path d="M124.6000 57.0000
L125.7265 57.5864
" />
</g>
<g style="fill:#FFFFFF; fill-opacity:0.0; 
stroke:#FFFFFF; stroke-width:0.1500; stroke-opacity:1; 
stroke-linecap:round; stroke-linejoin:round;">
<g transform="rotate(-90.000000 121.8000 75.0000)">
<text x="121.8000" y="75.5000"
transform="scale(-1 1) translate(-243.600000 0)"
textLength="5.7262" font-size="1.3333" lengthAdjust="spacingAndGlyphs"
text-anchor="middle" opacity="0">0.06 in</text>
</g>
<g class="stroked-text"><desc>0.06 in</desc>
<path d="M121.2548 72.6905
L121.2548 72.7857
" />
<path d="M121.2548 72.7857
L121.3024 72.8810
" />
<path d="M121.3024 72.8810
L121.3501 72.9286
" />
<path d="M121.3501 72.9286
L121.4453 72.9762
" />
<path d="M121.4453 72.9762
L121.6358 73.0238
" />
<path d="M121.6358 73.0238
L121.8739 73.0238
" />
<path d="M121.8739 73.0238
L122.0643 72.9762
" />
<path d="M122.0643 72.9762
L122.1596 72.9286
" />
<path d="M122.1596 72.9286
L122.2072 72.8810
" />
<path d="M122.2072 72.8810
L122.2548 72.7857
" />
<path d="M122.2548 72.7857
L122.2548 72.6905
" />
<path d="M122.2548 72.6905
L122.2072 72.5952
" />
<path d="M122.2072 72.5952
L122.1596 72.5476
" />
<path d="M122.1596 72.5476
L122.0643 72.5000
" />
<path d="M122.0643 72.5000
L121.8739 72.4524
" />
<path d="M121.8739 72.4524
L121.6358 72.4524
" />
<path d="M121.6358 72.4524
L121.4453 72.5000
" />
<path d="M121.4453 72.5000
L121.3501 72.5476
" />
<path d="M121.3501 72.5476
L121.3024 72.5952
" />
<path d="M121.3024 72.5952
L121.2548 72.6905
" />
<path d="M122.1596 73.4524
L122.2072 73.5000
" />
<path d="M122.2072 73.5000
L122.2548 73.4524
" />
<path d="M122.2548 73.4524
L122.2072 73.4048
" />
<path d="M122.2072 73.4048
L122.1596 73.4524
" />
<path d="M122.1596 73.4524
L122.2548 73.4524
" />
<path d="M121.2548 74.1190
L121.2548 74.2143
" />
<path d="M121.2548 74.2143
L121.3024 74.3095
" />
<path d="M121.3024 74.3095
L121.3501 74.3571
" />
<path d="M121.3501 74.3571
L121.4453 74.4048
" />
<path d="M121.4453 74.4048
L121.6358 74.4524
" />
<path d="M121.6358 74.4524
L121.8739 74.4524
" />
<path d="M121.8739 74.4524
L122.0643 74.4048
" />
<path d="M122.0643 74.4048
L122.1596 74.3571
" />
<path d="M122.1596 74.3571
L122.2072 74.3095
" />
<path d="M122.2072 74.3095
L122.2548 74.2143
" />
<path d="M122.2548 74.2143
L122.2548 74.1190
" />
<path d="M122.2548 74.1190
L122.2072 74.0238
" />
<path d="M122.2072 74.0238
L122.1596 73.9762
" />
<path d="M122.1596 73.9762
L122.0643 73.9286
" />
<path d="M122.0643 73.9286
L121.8739 73.8810
" />
<path d="M121.8739 73.8810
L121.6358 73.8810
" />
<path d="M121.6358 73.8810
L121.4453 73.9286
" />
<path d="M121.4453 73.9286
L121.3501 73.9762
" />
<path d="M121.3501 73.9762
L121.3024 74.0238
" />
<path d="M121.3024 74.0238
L121.2548 74.1190
" />
<path d="M121.2548 75.3095
L121.2548 75.1190
" />
<path d="M121.2548 75.1190
L121.3024 75.0238
" />
<path d="M121.3024 75.0238
L121.3501 74.9762
" />
<path d="M121.3501 74.9762
L121.4929 74.8810
" />
<path d="M121.4929 74.8810
L121.6834 74.8333
" />
<path d="M121.6834 74.8333
L122.0643 74.8333
" />
<path d="M122.0643 74.8333
L122.1596 74.8810
" />
<path d="M122.1596 74.8810
L122.2072 74.9286
" />
<path d="M122.2072 74.9286
L122.2548 75.0238
" />
<path d="M122.2548 75.0238
L122.2548 75.2143
" />
<path d="M122.2548 75.2143
L122.2072 75.3095
" />
<path d="M122.2072 75.3095
L122.1596 75.3571
" />
<path d="M122.1596 75.3571
L122.0643 75.4048
" />
<path d="M122.0643 75.4048
L121.8262 75.4048
" />
<path d="M121.8262 75.4048
L121.7310 75.3571
" />
<path d="M121.7310 75.3571
L121.6834 75.3095
" />
<path d="M121.6834 75.3095
L121.6358 75.2143
" />
<path d="M121.6358 75.2143
L121.6358 75.0238
" />
<path d="M121.6358 75.0238
L121.6834 74.9286
" />
<path d="M121.6834 74.9286
L121.7310 74.8810
" />
<path d="M121.7310 74.8810
L121.8262 74.8333
" />
<path d="M122.2548 76.5952
L121.5882 76.5952
" />
<path d="M121.2548 76.5952
L121.3024 76.5476
" />
<path d="M121.3024 76.5476
L121.3501 76.5952
" />
<path d="M121.3501 76.5952
L121.3024 76.6429
" />
<path d="M121.3024 76.6429
L121.2548 76.5952
" />
<path d="M121.2548 76.5952
L121.3501 76.5952
" />
<path d="M121.5882 77.0714
L122.2548 77.0714
" />
<path d="M121.6834 77.0714
L121.6358 77.1190
" />
<path d="M121.6358 77.1190
L121.5882 77.2143
" />
<path d="M121.5882 77.2143
L121.5882 77.3571
" />
<path d="M121.5882 77.3571
L121.6358 77.4524
" />
<path d="M121.6358 77.4524
L121.7310 77.5000
" />
<path d="M121.7310 77.5000
L122.2548 77.5000
" />
</g></g>
<g style="fill:#FFFFFF; fill-opacity:0.0; 
stroke:#FFFFFF; stroke-width:0.1000; stroke-opacity:1; 
stroke-linecap:round; stroke-linejoin:round;">
<path d="M122.5000 79.5200
L121.3136 79.5200
" />
<path d="M122.5000 78.0000
L121.3136 78.0000
" />
<path d="M121.9000 79.5200
L121.9000 78.3631
" />
<path d="M121.9000 79.5200
L121.3136 78.3935
" />
<path d="M121.9000 79.5200
L122.4864 78.3935
" />
<path d="M121.9000 78.0000
L122.4864 79.1265
" />
<path d="M121.9000 78.0000
L121.3136 79.1265
" />
</g>
<g style="fill:#FFFFFF; fill-opacity:0.0; 
stroke:#FFFFFF; stroke-width:0.1500; stroke-opacity:1; 
stroke-linecap:round; stroke-linejoin:round;">
<g transform="rotate(-90.000000 178.1000 81.5000)">
<text x="178.1000" y="82.0000"
transform="scale(-1 1) translate(-356.200000 0)"
textLength="5.7262" font-size="1.3333" lengthAdjust="spacingAndGlyphs"
text-anchor="middle" opacity="0">0.14 in</text>
</g>
<g class="stroked-text"><desc>0.14 in</desc>
<path d="M177.5548 79.1905
L177.5548 79.2857
" />
<path d="M177.5548 79.2857
L177.6024 79.3810
" />
<path d="M177.6024 79.3810
L177.6501 79.4286
" />
<path d="M177.6501 79.4286
L177.7453 79.4762
" />
<path d="M177.7453 79.4762
L177.9358 79.5238
" />
<path d="M177.9358 79.5238
L178.1739 79.5238
" />
<path d="M178.1739 79.5238
L178.3643 79.4762
" />
<path d="M178.3643 79.4762
L178.4596 79.4286
" />
<path d="M178.4596 79.4286
L178.5072 79.3810
" />
<path d="M178.5072 79.3810
L178.5548 79.2857
" />
<path d="M178.5548 79.2857
L178.5548 79.1905
" />
<path d="M178.5548 79.1905
L178.5072 79.0952
" />
<path d="M178.5072 79.0952
L178.4596 79.0476
" />
<path d="M178.4596 79.0476
L178.3643 79.0000
" />
<path d="M178.3643 79.0000
L178.1739 78.9524
" />
<path d="M178.1739 78.9524
L177.9358 78.9524
" />
<path d="M177.9358 78.9524
L177.7453 79.0000
" />
<path d="M177.7453 79.0000
L177.6501 79.0476
" />
<path d="M177.6501 79.0476
L177.6024 79.0952
" />
<path d="M177.6024 79.0952
L177.5548 79.1905
" />
<path d="M178.4596 79.9524
L178.5072 80.0000
" />
<path d="M178.5072 80.0000
L178.5548 79.9524
" />
<path d="M178.5548 79.9524
L178.5072 79.9048
" />
<path d="M178.5072 79.9048
L178.4596 79.9524
" />
<path d="M178.4596 79.9524
L178.5548 79.9524
" />
<path d="M178.5548 80.9524
L178.5548 80.3810
" />
<path d="M178.5548 80.6667
L177.5548 80.6667
" />
<path d="M177.5548 80.6667
L177.6977 80.5714
" />
<path d="M177.6977 80.5714
L177.7929 80.4762
" />
<path d="M177.7929 80.4762
L177.8405 80.3810
" />
<path d="M177.8882 81.8095
L178.5548 81.8095
" />
<path d="M177.5072 81.5714
L178.2215 81.3333
" />
<path d="M178.2215 81.3333
L178.2215 81.9524
" />
<path d="M178.5548 83.0952
L177.8882 83.0952
" />
<path d="M177.5548 83.0952
L177.6024 83.0476
" />
<path d="M177.6024 83.0476
L177.6501 83.0952
" />
<path d="M177.6501 83.0952
L177.6024 83.1429
" />
<path d="M177.6024 83.1429
L177.5548 83.0952
" />
<path d="M177.5548 83.0952
L177.6501 83.0952
" />
<path d="M177.8882 83.5714
L178.5548 83.5714
" />
<path d="M177.9834 83.5714
L177.9358 83.6190
" />
<path d="M177.9358 83.6190
L177.8882 83.7143
" />
<path d="M177.8882 83.7143
L177.8882 83.8571
" />
<path d="M177.8882 83.8571
L177.9358 83.9524
" />
<path d="M177.9358 83.9524
L178.0310 84.0000
" />
<path d="M178.0310 84.0000
L178.5548 84.0000
" />
</g></g>
<g style="fill:#FFFFFF; fill-opacity:0.0; 
stroke:#FFFFFF; stroke-width:0.1000; stroke-opacity:1; 
stroke-linecap:round; stroke-linejoin:round;">
<path d="M177.5000 74.4400
L178.6864 74.4400
" />
<path d="M177.5000 78.0000
L178.6864 78.0000
" />
<path d="M178.1000 74.4400
L178.1000 78.0000
" />
<path d="M178.1000 74.4400
L178.1000 78.0000
" />
<path d="M178.1000 74.4400
L178.6864 75.5665
" />
<path d="M178.1000 74.4400
L177.5136 75.5665
" />
<path d="M178.1000 78.0000
L177.5136 76.8735
" />
<path d="M178.1000 78.0000
L178.6864 76.8735
" />
</g>
<g style="fill:#FFFFFF; fill-opacity:0.0; 
stroke:#FFFFFF; stroke-width:0.1500; stroke-opacity:1; 
stroke-linecap:round; stroke-linejoin:round;">
<g transform="rotate(-90.000000 179.2500 66.4000)">
<text x="179.2500" y="66.9000"
transform="scale(-1 1) translate(-358.500000 0)"
textLength="5.7262" font-size="1.3333" lengthAdjust="spacingAndGlyphs"
text-anchor="middle" opacity="0">0.61 in</text>
</g>
<g class="stroked-text"><desc>0.61 in</desc>
<path d="M178.7048 64.0905
L178.7048 64.1857
" />
<path d="M178.7048 64.1857
L178.7524 64.2810
" />
<path d="M178.7524 64.2810
L178.8001 64.3286
" />
<path d="M178.8001 64.3286
L178.8953 64.3762
" />
<path d="M178.8953 64.3762
L179.0858 64.4238
" />
<path d="M179.0858 64.4238
L179.3239 64.4238
" />
<path d="M179.3239 64.4238
L179.5143 64.3762
" />
<path d="M179.5143 64.3762
L179.6096 64.3286
" />
<path d="M179.6096 64.3286
L179.6572 64.2810
" />
<path d="M179.6572 64.2810
L179.7048 64.1857
" />
<path d="M179.7048 64.1857
L179.7048 64.0905
" />
<path d="M179.7048 64.0905
L179.6572 63.9952
" />
<path d="M179.6572 63.9952
L179.6096 63.9476
" />
<path d="M179.6096 63.9476
L179.5143 63.9000
" />
<path d="M179.5143 63.9000
L179.3239 63.8524
" />
<path d="M179.3239 63.8524
L179.0858 63.8524
" />
<path d="M179.0858 63.8524
L178.8953 63.9000
" />
<path d="M178.8953 63.9000
L178.8001 63.9476
" />
<path d="M178.8001 63.9476
L178.7524 63.9952
" />
<path d="M178.7524 63.9952
L178.7048 64.0905
" />
<path d="M179.6096 64.8524
L179.6572 64.9000
" />
<path d="M179.6572 64.9000
L179.7048 64.8524
" />
<path d="M179.7048 64.8524
L179.6572 64.8048
" />
<path d="M179.6572 64.8048
L179.6096 64.8524
" />
<path d="M179.6096 64.8524
L179.7048 64.8524
" />
<path d="M178.7048 65.7571
L178.7048 65.5667
" />
<path d="M178.7048 65.5667
L178.7524 65.4714
" />
<path d="M178.7524 65.4714
L178.8001 65.4238
" />
<path d="M178.8001 65.4238
L178.9429 65.3286
" />
<path d="M178.9429 65.3286
L179.1334 65.2810
" />
<path d="M179.1334 65.2810
L179.5143 65.2810
" />
<path d="M179.5143 65.2810
L179.6096 65.3286
" />
<path d="M179.6096 65.3286
L179.6572 65.3762
" />
<path d="M179.6572 65.3762
L179.7048 65.4714
" />
<path d="M179.7048 65.4714
L179.7048 65.6619
" />
<path d="M179.7048 65.6619
L179.6572 65.7571
" />
<path d="M179.6572 65.7571
L179.6096 65.8048
" />
<path d="M179.6096 65.8048
L179.5143 65.8524
" />
<path d="M179.5143 65.8524
L179.2762 65.8524
" />
<path d="M179.2762 65.8524
L179.1810 65.8048
" />
<path d="M179.1810 65.8048
L179.1334 65.7571
" />
<path d="M179.1334 65.7571
L179.0858 65.6619
" />
<path d="M179.0858 65.6619
L179.0858 65.4714
" />
<path d="M179.0858 65.4714
L179.1334 65.3762
" />
<path d="M179.1334 65.3762
L179.1810 65.3286
" />
<path d="M179.1810 65.3286
L179.2762 65.2810
" />
<path d="M179.7048 66.8048
L179.7048 66.2333
" />
<path d="M179.7048 66.5190
L178.7048 66.5190
" />
<path d="M178.7048 66.5190
L178.8477 66.4238
" />
<path d="M178.8477 66.4238
L178.9429 66.3286
" />
<path d="M178.9429 66.3286
L178.9905 66.2333
" />
<path d="M179.7048 67.9952
L179.0382 67.9952
" />
<path d="M178.7048 67.9952
L178.7524 67.9476
" />
<path d="M178.7524 67.9476
L178.8001 67.9952
" />
<path d="M178.8001 67.9952
L178.7524 68.0429
" />
<path d="M178.7524 68.0429
L178.7048 67.9952
" />
<path d="M178.7048 67.9952
L178.8001 67.9952
" />
<path d="M179.0382 68.4714
L179.7048 68.4714
" />
<path d="M179.1334 68.4714
L179.0858 68.5190
" />
<path d="M179.0858 68.5190
L179.0382 68.6143
" />
<path d="M179.0382 68.6143
L179.0382 68.7571
" />
<path d="M179.0382 68.7571
L179.0858 68.8524
" />
<path d="M179.0858 68.8524
L179.1810 68.9000
" />
<path d="M179.1810 68.9000
L179.7048 68.9000
" />
</g></g>
<g style="fill:#FFFFFF; fill-opacity:0.0; 
stroke:#FFFFFF; stroke-width:0.1000; stroke-opacity:1; 
stroke-linecap:round; stroke-linejoin:round;">
<path d="M177.6000 74.4400
L177.5136 74.4400
" />
<path d="M177.6000 58.9500
L177.5136 58.9500
" />
<path d="M178.1000 74.4400
L178.1000 58.9500
" />
<path d="M178.1000 74.4400
L178.1000 58.9500
" />
<path d="M178.1000 74.4400
L177.5136 73.3135
" />
<path d="M178.1000 74.4400
L178.6864 73.3135
" />
<path d="M178.1000 58.9500
L178.6864 60.0765
" />
<path d="M178.1000 58.9500
L177.5136 60.0765
" />
</g>
<g style="fill:#FFFFFF; fill-opacity:0.0; 
stroke:#FFFFFF; stroke-width:0.1500; stroke-opacity:1; 
stroke-linecap:round; stroke-linejoin:round;">
<text x="150.0000" y="104.1000"
transform="scale(-1 1) translate(-300.000000 0)"
textLength="5.7262" font-size="1.3333" lengthAdjust="spacingAndGlyphs"
text-anchor="middle" opacity="0">2.00 in</text>
<g class="stroked-text"><desc>2.00 in</desc>
<path d="M152.5476 103.1501
L152.5000 103.1024
" />
<path d="M152.5000 103.1024
L152.4048 103.0548
" />
<path d="M152.4048 103.0548
L152.1667 103.0548
" />
<path d="M152.1667 103.0548
L152.0714 103.1024
" />
<path d="M152.0714 103.1024
L152.0238 103.1501
" />
<path d="M152.0238 103.1501
L151.9762 103.2453
" />
<path d="M151.9762 103.2453
L151.9762 103.3405
" />
<path d="M151.9762 103.3405
L152.0238 103.4834
" />
<path d="M152.0238 103.4834
L152.5952 104.0548
" />
<path d="M152.5952 104.0548
L151.9762 104.0548
" />
<path d="M151.5476 103.9596
L151.5000 104.0072
" />
<path d="M151.5000 104.0072
L151.5476 104.0548
" />
<path d="M151.5476 104.0548
L151.5952 104.0072
" />
<path d="M151.5952 104.0072
L151.5476 103.9596
" />
<path d="M151.5476 103.9596
L151.5476 104.0548
" />
<path d="M150.8810 103.0548
L150.7857 103.0548
" />
<path d="M150.7857 103.0548
L150.6905 103.1024
" />
<path d="M150.6905 103.1024
L150.6429 103.1501
" />
<path d="M150.6429 103.1501
L150.5952 103.2453
" />
<path d="M150.5952 103.2453
L150.5476 103.4358
" />
<path d="M150.5476 103.4358
L150.5476 103.6739
" />
<path d="M150.5476 103.6739
L150.5952 103.8643
" />
<path d="M150.5952 103.8643
L150.6429 103.9596
" />
<path d="M150.6429 103.9596
L150.6905 104.0072
" />
<path d="M150.6905 104.0072
L150.7857 104.0548
" />
<path d="M150.7857 104.0548
L150.8810 104.0548
" />
<path d="M150.8810 104.0548
L150.9762 104.0072
" />
<path d="M150.9762 104.0072
L151.0238 103.9596
" />
<path d="M151.0238 103.9596
L151.0714 103.8643
" />
<path d="M151.0714 103.8643
L151.1190 103.6739
" />
<path d="M151.1190 103.6739
L151.1190 103.4358
" />
<path d="M151.1190 103.4358
L151.0714 103.2453
" />
<path d="M151.0714 103.2453
L151.0238 103.1501
" />
<path d="M151.0238 103.1501
L150.9762 103.1024
" />
<path d="M150.9762 103.1024
L150.8810 103.0548
" />
<path d="M149.9286 103.0548
L149.8333 103.0548
" />
<path d="M149.8333 103.0548
L149.7381 103.1024
" />
<path d="M149.7381 103.1024
L149.6905 103.1501
" />
<path d="M149.6905 103.1501
L149.6429 103.2453
" />
<path d="M149.6429 103.2453
L149.5952 103.4358
" />
<path d="M149.5952 103.4358
L149.5952 103.6739
" />
<path d="M149.5952 103.6739
L149.6429 103.8643
" />
<path d="M149.6429 103.8643
L149.6905 103.9596
" />
<path d="M149.6905 103.9596
L149.7381 104.0072
" />
<path d="M149.7381 104.0072
L149.8333 104.0548
" />
<path d="M149.8333 104.0548
L149.9286 104.0548
" />
<path d="M149.9286 104.0548
L150.0238 104.0072
" />
<path d="M150.0238 104.0072
L150.0714 103.9596
" />
<path d="M150.0714 103.9596
L150.1190 103.8643
" />
<path d="M150.1190 103.8643
L150.1667 103.6739
" />
<path d="M150.1667 103.6739
L150.1667 103.4358
" />
<path d="M150.1667 103.4358
L150.1190 103.2453
" />
<path d="M150.1190 103.2453
L150.0714 103.1501
" />
<path d="M150.0714 103.1501
L150.0238 103.1024
" />
<path d="M150.0238 103.1024
L149.9286 103.0548
" />
<path d="M148.4048 104.0548
L148.4048 103.3882
" />
<path d="M148.4048 103.0548
L148.4524 103.1024
" />
<path d="M148.4524 103.1024
L148.4048 103.1501
" />
<path d="M148.4048 103.1501
L148.3571 103.1024
" />
<path d="M148.3571 103.1024
L148.4048 103.0548
" />
<path d="M148.4048 103.0548
L148.4048 103.1501
" />
<path d="M147.9286 103.3882
L147.9286 104.0548
" />
<path d="M147.9286 103.4834
L147.8810 103.4358
" />
<path d="M147.8810 103.4358
L147.7857 103.3882
" />
<path d="M147.7857 103.3882
L147.6429 103.3882
" />
<path d="M147.6429 103.3882
L147.5476 103.4358
" />
<path d="M147.5476 103.4358
L147.5000 103.5310
" />
<path d="M147.5000 103.5310
L147.5000 104.0548
" />
</g></g>
<g style="fill:#FFFFFF; fill-opacity:0.0; 
stroke:#FFFFFF; stroke-width:0.1200; stroke-opacity:1; 
stroke-linecap:round; stroke-linejoin:round;">
<path d="M175.4000 97.5500
L175.4000 102.7164
" />
<path d="M124.6000 102.7164
L124.6000 97.5500
" />
<path d="M175.4000 102.1300
L124.6000 102.1300
" />
<path d="M175.4000 102.1300
L124.6000 102.1300
" />
<path d="M175.4000 102.1300
L174.2735 102.7164
" />
<path d="M175.4000 102.1300
L174.2735 101.5436
" />
<path d="M124.6000 102.1300
L125.7265 101.5436
" />
<path d="M124.6000 102.1300
L125.7265 102.7164
" />
</g>
<g style="fill:#FFFFFF; fill-opacity:0.0; 
stroke:#FFFFFF; stroke-width:0.1500; stroke-opacity:1; 
stroke-linecap:round; stroke-linejoin:round;">
<g transform="rotate(-90.000000 181.9000 77.9000)">
<text x="181.9000" y="78.4000"
transform="scale(-1 1) translate(-363.800000 0)"
textLength="5.7262" font-size="1.3333" lengthAdjust="spacingAndGlyphs"
text-anchor="middle" opacity="0">1.50 in</text>
</g>
<g class="stroked-text"><desc>1.50 in</desc>
<path d="M182.3548 75.9238
L182.3548 75.3524
" />
<path d="M182.3548 75.6381
L181.3548 75.6381
" />
<path d="M181.3548 75.6381
L181.4977 75.5429
" />
<path d="M181.4977 75.5429
L181.5929 75.4476
" />
<path d="M181.5929 75.4476
L181.6405 75.3524
" />
<path d="M182.2596 76.3524
L182.3072 76.4000
" />
<path d="M182.3072 76.4000
L182.3548 76.3524
" />
<path d="M182.3548 76.3524
L182.3072 76.3048
" />
<path d="M182.3072 76.3048
L182.2596 76.3524
" />
<path d="M182.2596 76.3524
L182.3548 76.3524
" />
<path d="M181.3548 77.3048
L181.3548 76.8286
" />
<path d="M181.3548 76.8286
L181.8310 76.7810
" />
<path d="M181.8310 76.7810
L181.7834 76.8286
" />
<path d="M181.7834 76.8286
L181.7358 76.9238
" />
<path d="M181.7358 76.9238
L181.7358 77.1619
" />
<path d="M181.7358 77.1619
L181.7834 77.2571
" />
<path d="M181.7834 77.2571
L181.8310 77.3048
" />
<path d="M181.8310 77.3048
L181.9262 77.3524
" />
<path d="M181.9262 77.3524
L182.1643 77.3524
" />
<path d="M182.1643 77.3524
L182.2596 77.3048
" />
<path d="M182.2596 77.3048
L182.3072 77.2571
" />
<path d="M182.3072 77.2571
L182.3548 77.1619
" />
<path d="M182.3548 77.1619
L182.3548 76.9238
" />
<path d="M182.3548 76.9238
L182.3072 76.8286
" />
<path d="M182.3072 76.8286
L182.2596 76.7810
" />
<path d="M181.3548 77.9714
L181.3548 78.0667
" />
<path d="M181.3548 78.0667
L181.4024 78.1619
" />
<path d="M181.4024 78.1619
L181.4501 78.2095
" />
<path d="M181.4501 78.2095
L181.5453 78.2571
" />
<path d="M181.5453 78.2571
L181.7358 78.3048
" />
<path d="M181.7358 78.3048
L181.9739 78.3048
" />
<path d="M181.9739 78.3048
L182.1643 78.2571
" />
<path d="M182.1643 78.2571
L182.2596 78.2095
" />
<path d="M182.2596 78.2095
L182.3072 78.1619
" />
<path d="M182.3072 78.1619
L182.3548 78.0667
" />
<path d="M182.3548 78.0667
L182.3548 77.9714
" />
<path d="M182.3548 77.9714
L182.3072 77.8762
" />
<path d="M182.3072 77.8762
L182.2596 77.8286
" />
<path d="M182.2596 77.8286
L182.1643 77.7810
" />
<path d="M182.1643 77.7810
L181.9739 77.7333
" />
<path d="M181.9739 77.7333
L181.7358 77.7333
" />
<path d="M181.7358 77.7333
L181.5453 77.7810
" />
<path d="M181.5453 77.7810
L181.4501 77.8286
" />
<path d="M181.4501 77.8286
L181.4024 77.8762
" />
<path d="M181.4024 77.8762
L181.3548 77.9714
" />
<path d="M182.3548 79.4952
L181.6882 79.4952
" />
<path d="M181.3548 79.4952
L181.4024 79.4476
" />
<path d="M181.4024 79.4476
L181.4501 79.4952
" />
<path d="M181.4501 79.4952
L181.4024 79.5429
" />
<path d="M181.4024 79.5429
L181.3548 79.4952
" />
<path d="M181.3548 79.4952
L181.4501 79.4952
" />
<path d="M181.6882 79.9714
L182.3548 79.9714
" />
<path d="M181.7834 79.9714
L181.7358 80.0190
" />
<path d="M181.7358 80.0190
L181.6882 80.1143
" />
<path d="M181.6882 80.1143
L181.6882 80.2571
" />
<path d="M181.6882 80.2571
L181.7358 80.3524
" />
<path d="M181.7358 80.3524
L181.8310 80.4000
" />
<path d="M181.8310 80.4000
L182.3548 80.4000
" />
</g></g>
<g style="fill:#FFFFFF; fill-opacity:0.0; 
stroke:#FFFFFF; stroke-width:0.1000; stroke-opacity:1; 
stroke-linecap:round; stroke-linejoin:round;">
<path d="M175.9000 58.9500
L181.1934 58.9500
" />
<path d="M181.1934 97.0500
L175.9000 97.0500
" />
<path d="M180.6070 58.9500
L180.6070 97.0500
" />
<path d="M180.6070 58.9500
L180.6070 97.0500
" />
<path d="M180.6070 58.9500
L181.1934 60.0765
" />
<path d="M180.6070 58.9500
L180.0206 60.0765
" />
<path d="M180.6070 97.0500
L180.0206 95.9235
" />
<path d="M180.6070 97.0500
L181.1934 95.9235
" />
<g >
</g>
<g >
</g>
<g >
</g>
<g >
</g>
<g >
</g>
<g >
</g>
<g >
</g>
<g >
</g>
<g >
</g>
<g >
</g>
<g >
</g>
<g >
</g>
<g >
</g>
<g >
</g>
<g >
</g>
<g >
</g>
<g >
</g>
<g >
</g>
<g >
</g>
<g >
</g>
<g >
</g>
<g >
</g>
<g >
</g>
<g >
</g>
<g >
</g>
<g >
</g>
<g >
</g>
<g >
</g>
<g >
</g>
<g >
</g>
<g >
</g>
<g >
</g>
<g >
</g>
<g >
</g>
<g >
</g>
<g >
</g>
<g >
</g>
<g >
</g>
<g >
</g>
<g >
</g>
<g >
</g>
<g >
</g>
<g >
</g>
<g >
</g>
</g>
<g style="fill:#FFFFFF; fill-opacity:0.0; 
stroke:#FFFFFF; stroke-width:0.1000; stroke-opacity:1; 
stroke-linecap:round; stroke-linejoin:round;">
</g>
<g style="fill:#FFFFFF; fill-opacity:0.0; 
stroke:#FFFFFF; stroke-width:0.0500; stroke-opacity:1; 
stroke-linecap:round; stroke-linejoin:round;">
<path d="M124.6000 97.0500
L175.4000 97.0500
" />
<path d="M175.4000 97.0500
L175.4000 58.9500
" />
<path d="M175.4000 58.9500
L124.6000 58.9500
" />
<path d="M124.6000 58.9500
L124.6000 97.0500
" />
<g >
</g>
<g >
</g>
<g >
</g>
<g >
</g>
<g >
</g>
<g >
</g>
<g >
</g>
<g >
</g>
<g >
</g>
<g >
</g>
<g >
</g>
<g >
</g>
<g >
</g>
<g >
</g>
<g >
</g>
<g >
</g>
<g >
</g>
<g >
</g>
<g >
</g>
<g >
</g>
<g >
</g>
<g >
</g>
<g >
</g>
<g >
</g>
<g >
</g>
<g >
</g>
<g >
</g>
<g >
</g>
<g >
</g>
<g >
</g>
<g >
</g>
<g >
</g>
<g >
</g>
<g >
</g>
<g >
</g>
<g >
</g>
<g >
</g>
<g >
</g>
<g >
</g>
<g >
</g>
<g >
</g>
<g >
</g>
<g >
</g>
<g >
</g>
</g> 
</svg>
